<svg width="800" height="400" viewBox="0 0 800 400" fill="none" xmlns="http://www.w3.org/2000/svg">
<rect width="800" height="400" fill="#FAFAFA"/>
<g filter="url(#filter0_dd_328_12088)">
<rect x="200" y="104" width="400" height="84" rx="4" fill="#F59E0B"/>
<path d="M237.7 127.6L232.4 122.3C232.2 122.1 232 122 231.7 122H224.3C224 122 223.8 122.1 223.6 122.3L218.3 127.6C218.1 127.8 218 128 218 128.3V135.8C218 136.1 218.1 136.3 218.3 136.5L223.6 141.8C223.8 141.9 224 142 224.3 142H231.8C232.1 142 232.3 141.9 232.5 141.7L237.8 136.4C238 136.2 238.1 136 238.1 135.7V128.3C238 128 237.9 127.8 237.7 127.6ZM228 137C227.4 137 227 136.6 227 136C227 135.4 227.4 135 228 135C228.6 135 229 135.4 229 136C229 136.6 228.6 137 228 137ZM229 132C229 132.6 228.6 133 228 133C227.4 133 227 132.6 227 132V128C227 127.4 227.4 127 228 127C228.6 127 229 127.4 229 128V132Z" fill="#171717"/>
<path d="M270.773 126.578L267.758 138H266.062L263.977 130.734C263.919 130.542 263.862 130.333 263.805 130.109C263.747 129.885 263.69 129.664 263.633 129.445C263.581 129.221 263.536 129.021 263.5 128.844C263.464 128.667 263.438 128.531 263.422 128.438C263.411 128.531 263.388 128.667 263.352 128.844C263.32 129.016 263.281 129.211 263.234 129.43C263.188 129.648 263.135 129.872 263.078 130.102C263.021 130.326 262.964 130.539 262.906 130.742L260.867 138H259.18L256.18 126.578H257.812L259.555 133.508C259.612 133.737 259.667 133.971 259.719 134.211C259.776 134.445 259.828 134.682 259.875 134.922C259.922 135.156 259.964 135.385 260 135.609C260.036 135.828 260.07 136.036 260.102 136.234C260.128 136.031 260.161 135.815 260.203 135.586C260.245 135.352 260.289 135.115 260.336 134.875C260.388 134.635 260.443 134.398 260.5 134.164C260.557 133.93 260.617 133.706 260.68 133.492L262.633 126.578H264.234L266.258 133.531C266.32 133.75 266.38 133.979 266.438 134.219C266.5 134.458 266.555 134.698 266.602 134.938C266.654 135.177 266.698 135.406 266.734 135.625C266.776 135.844 266.812 136.047 266.844 136.234C266.88 135.974 266.924 135.693 266.977 135.391C267.034 135.089 267.099 134.776 267.172 134.453C267.245 134.13 267.318 133.812 267.391 133.5L269.133 126.578H270.773ZM275.736 129.242C276.798 129.242 277.593 129.479 278.119 129.953C278.645 130.422 278.908 131.164 278.908 132.18V138H277.783L277.478 136.75H277.416C277.176 137.062 276.926 137.323 276.666 137.531C276.405 137.74 276.103 137.896 275.759 138C275.421 138.104 275.007 138.156 274.517 138.156C273.996 138.156 273.533 138.062 273.127 137.875C272.72 137.688 272.4 137.406 272.166 137.031C271.936 136.651 271.822 136.169 271.822 135.586C271.822 134.711 272.158 134.047 272.83 133.594C273.502 133.141 274.52 132.893 275.884 132.852L277.369 132.789V132.305C277.369 131.633 277.218 131.159 276.916 130.883C276.619 130.607 276.202 130.469 275.666 130.469C275.223 130.469 274.798 130.534 274.392 130.664C273.986 130.789 273.595 130.94 273.22 131.117L272.72 129.977C273.127 129.768 273.587 129.594 274.103 129.453C274.624 129.312 275.168 129.242 275.736 129.242ZM277.353 133.82L276.15 133.875C275.155 133.911 274.455 134.078 274.048 134.375C273.647 134.667 273.447 135.076 273.447 135.602C273.447 136.06 273.585 136.396 273.861 136.609C274.137 136.823 274.502 136.93 274.955 136.93C275.653 136.93 276.226 136.734 276.673 136.344C277.127 135.948 277.353 135.365 277.353 134.594V133.82ZM285.823 129.234C285.98 129.234 286.149 129.245 286.331 129.266C286.514 129.281 286.67 129.302 286.8 129.328L286.636 130.789C286.511 130.758 286.365 130.732 286.198 130.711C286.037 130.69 285.886 130.68 285.745 130.68C285.412 130.68 285.094 130.742 284.792 130.867C284.49 130.992 284.224 131.174 283.995 131.414C283.766 131.648 283.586 131.938 283.456 132.281C283.326 132.62 283.261 133.008 283.261 133.445V138H281.683V129.391H282.948L283.136 130.945H283.206C283.383 130.633 283.597 130.346 283.847 130.086C284.102 129.826 284.394 129.62 284.722 129.469C285.055 129.312 285.422 129.234 285.823 129.234ZM292.833 129.234C293.828 129.234 294.591 129.484 295.122 129.984C295.658 130.484 295.927 131.286 295.927 132.391V138H294.372V132.602C294.372 131.914 294.221 131.398 293.919 131.055C293.617 130.706 293.153 130.531 292.528 130.531C291.638 130.531 291.013 130.794 290.653 131.32C290.299 131.846 290.122 132.609 290.122 133.609V138H288.552V129.391H289.794L290.02 130.602H290.106C290.289 130.299 290.52 130.047 290.802 129.844C291.083 129.641 291.395 129.49 291.739 129.391C292.088 129.286 292.453 129.234 292.833 129.234ZM300.272 129.391V138H298.702V129.391H300.272ZM299.498 126.133C299.748 126.133 299.962 126.206 300.139 126.352C300.321 126.497 300.412 126.734 300.412 127.062C300.412 127.391 300.321 127.63 300.139 127.781C299.962 127.927 299.748 128 299.498 128C299.243 128 299.027 127.927 298.85 127.781C298.678 127.63 298.592 127.391 298.592 127.062C298.592 126.734 298.678 126.497 298.85 126.352C299.027 126.206 299.243 126.133 299.498 126.133ZM307.383 129.234C308.378 129.234 309.141 129.484 309.672 129.984C310.208 130.484 310.477 131.286 310.477 132.391V138H308.922V132.602C308.922 131.914 308.771 131.398 308.469 131.055C308.167 130.706 307.703 130.531 307.078 130.531C306.188 130.531 305.562 130.794 305.203 131.32C304.849 131.846 304.672 132.609 304.672 133.609V138H303.102V129.391H304.344L304.57 130.602H304.656C304.839 130.299 305.07 130.047 305.352 129.844C305.633 129.641 305.945 129.49 306.289 129.391C306.638 129.286 307.003 129.234 307.383 129.234ZM315.689 141.844C314.538 141.844 313.653 141.633 313.033 141.211C312.418 140.789 312.111 140.201 312.111 139.445C312.111 138.909 312.28 138.453 312.619 138.078C312.957 137.708 313.431 137.458 314.041 137.328C313.811 137.224 313.614 137.065 313.447 136.852C313.285 136.633 313.205 136.388 313.205 136.117C313.205 135.799 313.293 135.526 313.47 135.297C313.653 135.062 313.923 134.836 314.283 134.617C313.83 134.43 313.465 134.12 313.189 133.688C312.913 133.25 312.775 132.74 312.775 132.156C312.775 131.536 312.905 131.008 313.166 130.57C313.431 130.133 313.811 129.799 314.306 129.57C314.801 129.341 315.403 129.227 316.111 129.227C316.267 129.227 316.429 129.234 316.595 129.25C316.762 129.26 316.921 129.279 317.072 129.305C317.223 129.331 317.345 129.357 317.439 129.383H320.408V130.312L318.877 130.547C319.028 130.745 319.15 130.979 319.244 131.25C319.338 131.521 319.384 131.818 319.384 132.141C319.384 133.016 319.085 133.708 318.486 134.219C317.892 134.724 317.069 134.977 316.017 134.977C315.772 134.971 315.525 134.951 315.275 134.914C315.051 135.044 314.882 135.188 314.767 135.344C314.653 135.495 314.595 135.669 314.595 135.867C314.595 136.018 314.645 136.141 314.744 136.234C314.848 136.328 314.996 136.398 315.189 136.445C315.382 136.487 315.616 136.508 315.892 136.508H317.392C318.33 136.508 319.048 136.706 319.548 137.102C320.048 137.497 320.298 138.076 320.298 138.836C320.298 139.799 319.903 140.542 319.111 141.062C318.319 141.583 317.179 141.844 315.689 141.844ZM315.744 140.695C316.416 140.695 316.976 140.628 317.423 140.492C317.877 140.357 318.218 140.164 318.447 139.914C318.676 139.664 318.791 139.367 318.791 139.023C318.791 138.711 318.715 138.471 318.564 138.305C318.418 138.143 318.199 138.034 317.908 137.977C317.616 137.919 317.257 137.891 316.83 137.891H315.408C315.043 137.891 314.726 137.948 314.455 138.062C314.184 138.177 313.973 138.341 313.822 138.555C313.671 138.773 313.595 139.042 313.595 139.359C313.595 139.792 313.78 140.122 314.15 140.352C314.525 140.581 315.056 140.695 315.744 140.695ZM316.088 133.906C316.666 133.906 317.098 133.755 317.384 133.453C317.671 133.146 317.814 132.708 317.814 132.141C317.814 131.531 317.668 131.073 317.377 130.766C317.085 130.458 316.653 130.305 316.08 130.305C315.522 130.305 315.095 130.464 314.798 130.781C314.507 131.094 314.361 131.552 314.361 132.156C314.361 132.714 314.509 133.146 314.806 133.453C315.103 133.755 315.53 133.906 316.088 133.906Z" fill="#171717"/>
<path d="M576.94 132L581.14 127.807C581.266 127.681 581.336 127.511 581.336 127.333C581.336 127.156 581.266 126.986 581.14 126.86C581.014 126.734 580.844 126.664 580.667 126.664C580.489 126.664 580.319 126.734 580.193 126.86L576 131.06L571.807 126.86C571.681 126.734 571.511 126.664 571.333 126.664C571.156 126.664 570.986 126.734 570.86 126.86C570.734 126.986 570.664 127.156 570.664 127.333C570.664 127.511 570.734 127.681 570.86 127.807L575.06 132L570.86 136.193C570.797 136.255 570.748 136.329 570.714 136.41C570.68 136.492 570.663 136.579 570.663 136.667C570.663 136.755 570.68 136.842 570.714 136.923C570.748 137.004 570.797 137.078 570.86 137.14C570.922 137.202 570.996 137.252 571.077 137.286C571.158 137.32 571.245 137.337 571.333 137.337C571.421 137.337 571.508 137.32 571.59 137.286C571.671 137.252 571.745 137.202 571.807 137.14L576 132.94L580.193 137.14C580.255 137.202 580.329 137.252 580.41 137.286C580.492 137.32 580.579 137.337 580.667 137.337C580.755 137.337 580.842 137.32 580.923 137.286C581.004 137.252 581.078 137.202 581.14 137.14C581.202 137.078 581.252 137.004 581.286 136.923C581.32 136.842 581.337 136.755 581.337 136.667C581.337 136.579 581.32 136.492 581.286 136.41C581.252 136.329 581.202 136.255 581.14 136.193L576.94 132Z" fill="#171717"/>
<path d="M263.007 164.341C263.007 164.933 262.859 165.439 262.562 165.858C262.271 166.273 261.861 166.59 261.332 166.809C260.803 167.027 260.181 167.137 259.466 167.137C259.088 167.137 258.73 167.118 258.393 167.082C258.055 167.046 257.745 166.993 257.463 166.925C257.18 166.856 256.932 166.772 256.718 166.672V165.558C257.06 165.699 257.477 165.831 257.969 165.954C258.461 166.073 258.976 166.132 259.514 166.132C260.015 166.132 260.439 166.066 260.785 165.934C261.132 165.797 261.394 165.603 261.571 165.353C261.754 165.097 261.845 164.792 261.845 164.437C261.845 164.095 261.77 163.81 261.619 163.582C261.469 163.35 261.218 163.14 260.867 162.953C260.521 162.762 260.047 162.559 259.445 162.345C259.021 162.194 258.648 162.03 258.324 161.853C258.001 161.67 257.729 161.465 257.511 161.237C257.292 161.009 257.126 160.745 257.012 160.444C256.902 160.144 256.848 159.799 256.848 159.412C256.848 158.879 256.982 158.423 257.251 158.045C257.524 157.662 257.9 157.37 258.379 157.17C258.862 156.965 259.416 156.862 260.04 156.862C260.573 156.862 261.065 156.912 261.517 157.013C261.972 157.113 262.389 157.247 262.768 157.416L262.405 158.414C262.045 158.264 261.662 158.138 261.257 158.038C260.856 157.938 260.441 157.888 260.013 157.888C259.584 157.888 259.222 157.951 258.926 158.079C258.634 158.202 258.411 158.378 258.256 158.605C258.101 158.833 258.023 159.104 258.023 159.419C258.023 159.77 258.096 160.062 258.242 160.294C258.393 160.526 258.63 160.734 258.953 160.916C259.281 161.094 259.714 161.281 260.252 161.477C260.84 161.691 261.339 161.919 261.749 162.16C262.159 162.397 262.471 162.689 262.686 163.035C262.9 163.377 263.007 163.812 263.007 164.341ZM271.59 163.24C271.59 163.855 271.51 164.405 271.351 164.888C271.191 165.371 270.961 165.779 270.66 166.111C270.359 166.444 269.995 166.699 269.566 166.877C269.143 167.05 268.662 167.137 268.124 167.137C267.623 167.137 267.162 167.05 266.743 166.877C266.328 166.699 265.968 166.444 265.663 166.111C265.362 165.779 265.128 165.371 264.959 164.888C264.795 164.405 264.713 163.855 264.713 163.24C264.713 162.42 264.852 161.723 265.13 161.148C265.408 160.57 265.804 160.13 266.319 159.829C266.839 159.524 267.456 159.371 268.172 159.371C268.855 159.371 269.452 159.524 269.963 159.829C270.478 160.134 270.877 160.576 271.159 161.155C271.446 161.729 271.59 162.424 271.59 163.24ZM265.889 163.24C265.889 163.842 265.968 164.364 266.128 164.806C266.287 165.248 266.534 165.59 266.866 165.831C267.199 166.073 267.627 166.193 268.151 166.193C268.671 166.193 269.097 166.073 269.43 165.831C269.767 165.59 270.015 165.248 270.175 164.806C270.334 164.364 270.414 163.842 270.414 163.24C270.414 162.643 270.334 162.128 270.175 161.695C270.015 161.258 269.769 160.921 269.437 160.684C269.104 160.447 268.673 160.328 268.145 160.328C267.365 160.328 266.793 160.586 266.429 161.101C266.069 161.616 265.889 162.329 265.889 163.24ZM281.937 159.371C282.761 159.371 283.383 159.588 283.803 160.021C284.222 160.449 284.432 161.139 284.432 162.092V167H283.311V162.146C283.311 161.54 283.178 161.087 282.914 160.786C282.654 160.481 282.267 160.328 281.752 160.328C281.027 160.328 280.501 160.538 280.173 160.957C279.845 161.376 279.681 161.994 279.681 162.81V167H278.553V162.146C278.553 161.741 278.493 161.404 278.375 161.135C278.261 160.866 278.088 160.665 277.855 160.533C277.628 160.396 277.338 160.328 276.987 160.328C276.491 160.328 276.092 160.431 275.791 160.636C275.49 160.841 275.271 161.146 275.135 161.552C275.003 161.953 274.937 162.447 274.937 163.035V167H273.802V159.508H274.718L274.889 160.567H274.95C275.101 160.308 275.29 160.089 275.518 159.911C275.745 159.733 276.001 159.599 276.283 159.508C276.566 159.417 276.867 159.371 277.186 159.371C277.755 159.371 278.231 159.478 278.614 159.692C279.002 159.902 279.282 160.223 279.455 160.656H279.517C279.763 160.223 280.1 159.902 280.528 159.692C280.957 159.478 281.426 159.371 281.937 159.371ZM289.897 159.371C290.535 159.371 291.082 159.512 291.538 159.795C291.994 160.077 292.342 160.474 292.584 160.984C292.826 161.49 292.946 162.083 292.946 162.762V163.466H287.771C287.785 164.345 288.004 165.015 288.428 165.476C288.852 165.936 289.449 166.166 290.219 166.166C290.693 166.166 291.112 166.123 291.477 166.036C291.841 165.95 292.219 165.822 292.611 165.653V166.651C292.233 166.82 291.857 166.943 291.483 167.021C291.114 167.098 290.677 167.137 290.171 167.137C289.451 167.137 288.822 166.991 288.284 166.699C287.751 166.403 287.336 165.97 287.04 165.4C286.744 164.831 286.596 164.133 286.596 163.309C286.596 162.502 286.73 161.805 286.999 161.217C287.272 160.624 287.655 160.169 288.147 159.85C288.644 159.531 289.228 159.371 289.897 159.371ZM289.884 160.301C289.278 160.301 288.795 160.499 288.435 160.896C288.075 161.292 287.86 161.846 287.792 162.557H291.757C291.752 162.11 291.682 161.718 291.545 161.381C291.413 161.039 291.21 160.775 290.937 160.588C290.663 160.396 290.312 160.301 289.884 160.301ZM301.677 167.137C300.729 167.137 299.977 166.813 299.421 166.166C298.869 165.519 298.594 164.557 298.594 163.281C298.594 161.992 298.876 161.019 299.441 160.362C300.007 159.701 300.758 159.371 301.697 159.371C302.094 159.371 302.44 159.424 302.736 159.528C303.033 159.633 303.288 159.774 303.502 159.952C303.716 160.125 303.896 160.324 304.042 160.547H304.124C304.106 160.406 304.088 160.212 304.069 159.966C304.051 159.72 304.042 159.519 304.042 159.364V156.363H305.177V167H304.261L304.09 165.934H304.042C303.901 166.157 303.721 166.36 303.502 166.542C303.288 166.724 303.03 166.87 302.729 166.979C302.433 167.084 302.082 167.137 301.677 167.137ZM301.854 166.193C302.657 166.193 303.224 165.965 303.557 165.51C303.889 165.054 304.056 164.377 304.056 163.479V163.274C304.056 162.322 303.896 161.59 303.577 161.08C303.263 160.57 302.688 160.314 301.854 160.314C301.157 160.314 300.635 160.583 300.289 161.121C299.943 161.654 299.77 162.383 299.77 163.309C299.77 164.229 299.94 164.94 300.282 165.441C300.629 165.943 301.153 166.193 301.854 166.193ZM310.636 159.385C311.529 159.385 312.192 159.585 312.625 159.986C313.058 160.387 313.274 161.028 313.274 161.907V167H312.447L312.229 165.893H312.174C311.964 166.166 311.745 166.396 311.518 166.583C311.29 166.765 311.025 166.904 310.725 167C310.428 167.091 310.064 167.137 309.631 167.137C309.175 167.137 308.77 167.057 308.414 166.897C308.063 166.738 307.785 166.496 307.58 166.173C307.38 165.849 307.279 165.439 307.279 164.942C307.279 164.195 307.576 163.621 308.168 163.22C308.76 162.819 309.663 162.6 310.875 162.563L312.167 162.509V162.051C312.167 161.404 312.028 160.95 311.75 160.69C311.472 160.431 311.08 160.301 310.574 160.301C310.182 160.301 309.809 160.358 309.453 160.472C309.098 160.586 308.76 160.72 308.441 160.875L308.093 160.014C308.43 159.84 308.817 159.692 309.255 159.569C309.692 159.446 310.153 159.385 310.636 159.385ZM312.153 163.309L311.012 163.356C310.077 163.393 309.419 163.546 309.036 163.814C308.653 164.083 308.462 164.464 308.462 164.956C308.462 165.384 308.592 165.701 308.852 165.906C309.111 166.111 309.455 166.214 309.884 166.214C310.549 166.214 311.094 166.029 311.518 165.66C311.941 165.291 312.153 164.737 312.153 163.999V163.309ZM318.282 166.207C318.469 166.207 318.66 166.191 318.856 166.159C319.052 166.127 319.212 166.089 319.335 166.043V166.925C319.203 166.984 319.018 167.034 318.781 167.075C318.549 167.116 318.321 167.137 318.098 167.137C317.701 167.137 317.341 167.068 317.018 166.932C316.694 166.79 316.434 166.553 316.238 166.221C316.047 165.888 315.951 165.428 315.951 164.84V160.396H314.885V159.843L315.958 159.398L316.409 157.771H317.093V159.508H319.287V160.396H317.093V164.806C317.093 165.275 317.2 165.626 317.414 165.858C317.633 166.091 317.922 166.207 318.282 166.207ZM323.905 159.385C324.799 159.385 325.462 159.585 325.895 159.986C326.327 160.387 326.544 161.028 326.544 161.907V167H325.717L325.498 165.893H325.443C325.234 166.166 325.015 166.396 324.787 166.583C324.559 166.765 324.295 166.904 323.994 167C323.698 167.091 323.333 167.137 322.9 167.137C322.445 167.137 322.039 167.057 321.684 166.897C321.333 166.738 321.055 166.496 320.85 166.173C320.649 165.849 320.549 165.439 320.549 164.942C320.549 164.195 320.845 163.621 321.438 163.22C322.03 162.819 322.932 162.6 324.145 162.563L325.437 162.509V162.051C325.437 161.404 325.298 160.95 325.02 160.69C324.742 160.431 324.35 160.301 323.844 160.301C323.452 160.301 323.078 160.358 322.723 160.472C322.367 160.586 322.03 160.72 321.711 160.875L321.362 160.014C321.7 159.84 322.087 159.692 322.524 159.569C322.962 159.446 323.422 159.385 323.905 159.385ZM325.423 163.309L324.281 163.356C323.347 163.393 322.688 163.546 322.306 163.814C321.923 164.083 321.731 164.464 321.731 164.956C321.731 165.384 321.861 165.701 322.121 165.906C322.381 166.111 322.725 166.214 323.153 166.214C323.819 166.214 324.363 166.029 324.787 165.66C325.211 165.291 325.423 164.737 325.423 163.999V163.309ZM336.02 167.137C335.345 167.137 334.75 166.998 334.235 166.72C333.72 166.442 333.319 166.018 333.032 165.448C332.745 164.879 332.602 164.161 332.602 163.295C332.602 162.388 332.752 161.647 333.053 161.073C333.358 160.494 333.777 160.066 334.311 159.788C334.844 159.51 335.45 159.371 336.129 159.371C336.503 159.371 336.863 159.41 337.209 159.487C337.56 159.56 337.847 159.654 338.07 159.768L337.729 160.718C337.501 160.627 337.236 160.545 336.936 160.472C336.639 160.399 336.361 160.362 336.102 160.362C335.582 160.362 335.149 160.474 334.803 160.697C334.461 160.921 334.203 161.249 334.03 161.682C333.862 162.115 333.777 162.648 333.777 163.281C333.777 163.887 333.859 164.405 334.023 164.833C334.192 165.261 334.44 165.59 334.769 165.817C335.101 166.041 335.516 166.152 336.013 166.152C336.409 166.152 336.767 166.111 337.086 166.029C337.405 165.943 337.694 165.842 337.954 165.729V166.74C337.703 166.868 337.423 166.966 337.113 167.034C336.808 167.103 336.443 167.137 336.02 167.137ZM346.441 163.24C346.441 163.855 346.362 164.405 346.202 164.888C346.043 165.371 345.812 165.779 345.512 166.111C345.211 166.444 344.846 166.699 344.418 166.877C343.994 167.05 343.513 167.137 342.976 167.137C342.474 167.137 342.014 167.05 341.595 166.877C341.18 166.699 340.82 166.444 340.515 166.111C340.214 165.779 339.979 165.371 339.811 164.888C339.646 164.405 339.564 163.855 339.564 163.24C339.564 162.42 339.703 161.723 339.981 161.148C340.259 160.57 340.656 160.13 341.171 159.829C341.69 159.524 342.308 159.371 343.023 159.371C343.707 159.371 344.304 159.524 344.814 159.829C345.329 160.134 345.728 160.576 346.011 161.155C346.298 161.729 346.441 162.424 346.441 163.24ZM340.74 163.24C340.74 163.842 340.82 164.364 340.979 164.806C341.139 165.248 341.385 165.59 341.718 165.831C342.05 166.073 342.479 166.193 343.003 166.193C343.522 166.193 343.949 166.073 344.281 165.831C344.618 165.59 344.867 165.248 345.026 164.806C345.186 164.364 345.266 163.842 345.266 163.24C345.266 162.643 345.186 162.128 345.026 161.695C344.867 161.258 344.621 160.921 344.288 160.684C343.955 160.447 343.525 160.328 342.996 160.328C342.217 160.328 341.645 160.586 341.28 161.101C340.92 161.616 340.74 162.329 340.74 163.24ZM352.201 159.371C353.09 159.371 353.762 159.59 354.218 160.027C354.674 160.46 354.901 161.158 354.901 162.119V167H353.78V162.194C353.78 161.57 353.637 161.103 353.35 160.793C353.067 160.483 352.632 160.328 352.044 160.328C351.215 160.328 350.631 160.563 350.294 161.032C349.957 161.502 349.788 162.183 349.788 163.076V167H348.653V159.508H349.569L349.74 160.588H349.802C349.961 160.324 350.164 160.103 350.41 159.925C350.656 159.743 350.932 159.606 351.237 159.515C351.543 159.419 351.864 159.371 352.201 159.371ZM359.909 166.207C360.096 166.207 360.287 166.191 360.483 166.159C360.679 166.127 360.839 166.089 360.962 166.043V166.925C360.83 166.984 360.645 167.034 360.408 167.075C360.176 167.116 359.948 167.137 359.725 167.137C359.328 167.137 358.968 167.068 358.645 166.932C358.321 166.79 358.061 166.553 357.865 166.221C357.674 165.888 357.578 165.428 357.578 164.84V160.396H356.512V159.843L357.585 159.398L358.036 157.771H358.72V159.508H360.914V160.396H358.72V164.806C358.72 165.275 358.827 165.626 359.041 165.858C359.26 166.091 359.549 166.207 359.909 166.207ZM365.532 159.385C366.425 159.385 367.089 159.585 367.521 159.986C367.954 160.387 368.171 161.028 368.171 161.907V167H367.344L367.125 165.893H367.07C366.861 166.166 366.642 166.396 366.414 166.583C366.186 166.765 365.922 166.904 365.621 167C365.325 167.091 364.96 167.137 364.527 167.137C364.072 167.137 363.666 167.057 363.311 166.897C362.96 166.738 362.682 166.496 362.477 166.173C362.276 165.849 362.176 165.439 362.176 164.942C362.176 164.195 362.472 163.621 363.064 163.22C363.657 162.819 364.559 162.6 365.771 162.563L367.063 162.509V162.051C367.063 161.404 366.924 160.95 366.646 160.69C366.368 160.431 365.977 160.301 365.471 160.301C365.079 160.301 364.705 160.358 364.35 160.472C363.994 160.586 363.657 160.72 363.338 160.875L362.989 160.014C363.326 159.84 363.714 159.692 364.151 159.569C364.589 159.446 365.049 159.385 365.532 159.385ZM367.05 163.309L365.908 163.356C364.974 163.393 364.315 163.546 363.933 163.814C363.55 164.083 363.358 164.464 363.358 164.956C363.358 165.384 363.488 165.701 363.748 165.906C364.008 166.111 364.352 166.214 364.78 166.214C365.446 166.214 365.99 166.029 366.414 165.66C366.838 165.291 367.05 164.737 367.05 163.999V163.309ZM371.894 159.508V167H370.759V159.508H371.894ZM371.34 156.705C371.527 156.705 371.686 156.767 371.818 156.89C371.955 157.008 372.023 157.195 372.023 157.45C372.023 157.701 371.955 157.888 371.818 158.011C371.686 158.134 371.527 158.195 371.34 158.195C371.144 158.195 370.98 158.134 370.848 158.011C370.72 157.888 370.656 157.701 370.656 157.45C370.656 157.195 370.72 157.008 370.848 156.89C370.98 156.767 371.144 156.705 371.34 156.705ZM378.098 159.371C378.986 159.371 379.659 159.59 380.114 160.027C380.57 160.46 380.798 161.158 380.798 162.119V167H379.677V162.194C379.677 161.57 379.533 161.103 379.246 160.793C378.964 160.483 378.528 160.328 377.94 160.328C377.111 160.328 376.528 160.563 376.19 161.032C375.853 161.502 375.685 162.183 375.685 163.076V167H374.55V159.508H375.466L375.637 160.588H375.698C375.858 160.324 376.061 160.103 376.307 159.925C376.553 159.743 376.828 159.606 377.134 159.515C377.439 159.419 377.76 159.371 378.098 159.371ZM388.232 164.949C388.232 165.428 388.112 165.831 387.87 166.159C387.633 166.483 387.291 166.727 386.845 166.891C386.403 167.055 385.874 167.137 385.259 167.137C384.735 167.137 384.281 167.096 383.898 167.014C383.516 166.932 383.181 166.815 382.894 166.665V165.619C383.199 165.77 383.563 165.906 383.987 166.029C384.411 166.152 384.844 166.214 385.286 166.214C385.933 166.214 386.403 166.109 386.694 165.899C386.986 165.69 387.132 165.405 387.132 165.045C387.132 164.84 387.073 164.66 386.954 164.505C386.84 164.345 386.646 164.193 386.373 164.047C386.1 163.896 385.721 163.732 385.238 163.555C384.76 163.372 384.345 163.192 383.994 163.015C383.648 162.832 383.379 162.611 383.188 162.352C383.001 162.092 382.907 161.755 382.907 161.34C382.907 160.706 383.162 160.221 383.673 159.884C384.188 159.542 384.862 159.371 385.696 159.371C386.147 159.371 386.569 159.417 386.961 159.508C387.357 159.594 387.727 159.713 388.068 159.863L387.686 160.772C387.376 160.64 387.045 160.529 386.694 160.438C386.343 160.346 385.986 160.301 385.621 160.301C385.097 160.301 384.694 160.387 384.411 160.561C384.133 160.734 383.994 160.971 383.994 161.271C383.994 161.504 384.058 161.695 384.186 161.846C384.318 161.996 384.527 162.137 384.814 162.27C385.102 162.402 385.48 162.557 385.949 162.734C386.419 162.908 386.824 163.088 387.166 163.274C387.508 163.457 387.77 163.68 387.952 163.944C388.139 164.204 388.232 164.539 388.232 164.949ZM397.079 159.371C397.717 159.371 398.264 159.512 398.72 159.795C399.175 160.077 399.524 160.474 399.766 160.984C400.007 161.49 400.128 162.083 400.128 162.762V163.466H394.953C394.967 164.345 395.186 165.015 395.609 165.476C396.033 165.936 396.63 166.166 397.4 166.166C397.874 166.166 398.294 166.123 398.658 166.036C399.023 165.95 399.401 165.822 399.793 165.653V166.651C399.415 166.82 399.039 166.943 398.665 167.021C398.296 167.098 397.858 167.137 397.353 167.137C396.632 167.137 396.004 166.991 395.466 166.699C394.933 166.403 394.518 165.97 394.222 165.4C393.925 164.831 393.777 164.133 393.777 163.309C393.777 162.502 393.912 161.805 394.181 161.217C394.454 160.624 394.837 160.169 395.329 159.85C395.826 159.531 396.409 159.371 397.079 159.371ZM397.065 160.301C396.459 160.301 395.976 160.499 395.616 160.896C395.256 161.292 395.042 161.846 394.974 162.557H398.938C398.934 162.11 398.863 161.718 398.727 161.381C398.594 161.039 398.392 160.775 398.118 160.588C397.845 160.396 397.494 160.301 397.065 160.301ZM405.71 159.371C405.86 159.371 406.018 159.38 406.182 159.398C406.346 159.412 406.492 159.433 406.619 159.46L406.476 160.513C406.353 160.481 406.216 160.456 406.065 160.438C405.915 160.419 405.774 160.41 405.642 160.41C405.341 160.41 405.056 160.472 404.787 160.595C404.523 160.713 404.29 160.886 404.09 161.114C403.889 161.338 403.732 161.609 403.618 161.928C403.504 162.242 403.447 162.593 403.447 162.98V167H402.306V159.508H403.249L403.372 160.889H403.42C403.575 160.611 403.762 160.358 403.98 160.13C404.199 159.897 404.452 159.713 404.739 159.576C405.031 159.439 405.354 159.371 405.71 159.371ZM411.688 159.371C411.839 159.371 411.996 159.38 412.16 159.398C412.324 159.412 412.47 159.433 412.598 159.46L412.454 160.513C412.331 160.481 412.194 160.456 412.044 160.438C411.894 160.419 411.752 160.41 411.62 160.41C411.319 160.41 411.035 160.472 410.766 160.595C410.501 160.713 410.269 160.886 410.068 161.114C409.868 161.338 409.711 161.609 409.597 161.928C409.483 162.242 409.426 162.593 409.426 162.98V167H408.284V159.508H409.228L409.351 160.889H409.398C409.553 160.611 409.74 160.358 409.959 160.13C410.178 159.897 410.431 159.713 410.718 159.576C411.009 159.439 411.333 159.371 411.688 159.371ZM420.723 163.24C420.723 163.855 420.643 164.405 420.483 164.888C420.324 165.371 420.094 165.779 419.793 166.111C419.492 166.444 419.128 166.699 418.699 166.877C418.275 167.05 417.795 167.137 417.257 167.137C416.756 167.137 416.295 167.05 415.876 166.877C415.461 166.699 415.101 166.444 414.796 166.111C414.495 165.779 414.26 165.371 414.092 164.888C413.928 164.405 413.846 163.855 413.846 163.24C413.846 162.42 413.985 161.723 414.263 161.148C414.541 160.57 414.937 160.13 415.452 159.829C415.972 159.524 416.589 159.371 417.305 159.371C417.988 159.371 418.585 159.524 419.096 159.829C419.611 160.134 420.009 160.576 420.292 161.155C420.579 161.729 420.723 162.424 420.723 163.24ZM415.021 163.24C415.021 163.842 415.101 164.364 415.261 164.806C415.42 165.248 415.666 165.59 415.999 165.831C416.332 166.073 416.76 166.193 417.284 166.193C417.804 166.193 418.23 166.073 418.562 165.831C418.9 165.59 419.148 165.248 419.308 164.806C419.467 164.364 419.547 163.842 419.547 163.24C419.547 162.643 419.467 162.128 419.308 161.695C419.148 161.258 418.902 160.921 418.569 160.684C418.237 160.447 417.806 160.328 417.277 160.328C416.498 160.328 415.926 160.586 415.562 161.101C415.201 161.616 415.021 162.329 415.021 163.24ZM426.339 159.371C426.489 159.371 426.646 159.38 426.811 159.398C426.975 159.412 427.12 159.433 427.248 159.46L427.104 160.513C426.981 160.481 426.845 160.456 426.694 160.438C426.544 160.419 426.403 160.41 426.271 160.41C425.97 160.41 425.685 160.472 425.416 160.595C425.152 160.713 424.919 160.886 424.719 161.114C424.518 161.338 424.361 161.609 424.247 161.928C424.133 162.242 424.076 162.593 424.076 162.98V167H422.935V159.508H423.878L424.001 160.889H424.049C424.204 160.611 424.391 160.358 424.609 160.13C424.828 159.897 425.081 159.713 425.368 159.576C425.66 159.439 425.983 159.371 426.339 159.371Z" fill="#404040"/>
</g>
<g filter="url(#filter1_dd_328_12088)">
<rect x="200" y="212" width="400" height="84" rx="4" fill="#047857"/>
<path d="M228 230C222.5 230 218 234.5 218 240C218 245.5 222.5 250 228 250C233.5 250 238 245.5 238 240C238 234.5 233.5 230 228 230ZM232.2 238.3L227.4 243.1C227 243.5 226.4 243.5 226 243.1L223.8 240.9C223.4 240.5 223.4 239.9 223.8 239.5C224.2 239.1 224.8 239.1 225.2 239.5L226.7 241L230.8 236.9C231.2 236.5 231.8 236.5 232.2 236.9C232.6 237.3 232.6 237.9 232.2 238.3Z" fill="white"/>
<path d="M264.055 242.93C264.055 243.607 263.885 244.188 263.547 244.672C263.214 245.151 262.742 245.518 262.133 245.773C261.523 246.029 260.799 246.156 259.961 246.156C259.539 246.156 259.135 246.133 258.75 246.086C258.37 246.044 258.016 245.982 257.688 245.898C257.359 245.815 257.062 245.711 256.797 245.586V244.07C257.229 244.247 257.729 244.414 258.297 244.57C258.865 244.721 259.451 244.797 260.055 244.797C260.581 244.797 261.021 244.727 261.375 244.586C261.734 244.44 262.005 244.237 262.188 243.977C262.37 243.716 262.461 243.404 262.461 243.039C262.461 242.674 262.372 242.37 262.195 242.125C262.018 241.875 261.737 241.646 261.352 241.438C260.971 241.229 260.471 241.008 259.852 240.773C259.419 240.617 259.026 240.44 258.672 240.242C258.318 240.039 258.01 239.807 257.75 239.547C257.495 239.286 257.297 238.982 257.156 238.633C257.016 238.279 256.945 237.872 256.945 237.414C256.945 236.784 257.099 236.245 257.406 235.797C257.719 235.349 258.154 235.008 258.711 234.773C259.268 234.534 259.914 234.414 260.648 234.414C261.253 234.414 261.815 234.474 262.336 234.594C262.862 234.714 263.362 234.878 263.836 235.086L263.328 236.414C262.885 236.232 262.44 236.083 261.992 235.969C261.544 235.854 261.081 235.797 260.602 235.797C260.159 235.797 259.784 235.862 259.477 235.992C259.174 236.122 258.943 236.307 258.781 236.547C258.625 236.786 258.547 237.07 258.547 237.398C258.547 237.768 258.63 238.076 258.797 238.32C258.964 238.565 259.227 238.786 259.586 238.984C259.945 239.182 260.414 239.393 260.992 239.617C261.643 239.867 262.195 240.133 262.648 240.414C263.107 240.695 263.456 241.034 263.695 241.43C263.935 241.826 264.055 242.326 264.055 242.93ZM273.58 237.391V246H272.322L272.103 244.82H272.017C271.84 245.117 271.611 245.365 271.33 245.562C271.048 245.76 270.733 245.909 270.384 246.008C270.035 246.107 269.666 246.156 269.275 246.156C268.614 246.156 268.051 246.047 267.587 245.828C267.129 245.609 266.78 245.271 266.541 244.812C266.306 244.349 266.189 243.753 266.189 243.023V237.391H267.767V242.805C267.767 243.497 267.916 244.016 268.212 244.359C268.515 244.703 268.973 244.875 269.587 244.875C270.186 244.875 270.66 244.758 271.009 244.523C271.364 244.284 271.616 243.938 271.767 243.484C271.923 243.026 272.002 242.466 272.002 241.805V237.391H273.58ZM279.878 246.156C279.086 246.156 278.394 245.997 277.8 245.68C277.206 245.362 276.745 244.878 276.417 244.227C276.094 243.57 275.933 242.742 275.933 241.742C275.933 240.701 276.107 239.849 276.456 239.188C276.805 238.521 277.287 238.029 277.902 237.711C278.521 237.393 279.23 237.234 280.027 237.234C280.495 237.234 280.933 237.281 281.339 237.375C281.751 237.469 282.094 237.586 282.37 237.727L281.902 239C281.61 238.885 281.295 238.784 280.956 238.695C280.623 238.607 280.305 238.562 280.003 238.562C279.451 238.562 278.993 238.685 278.628 238.93C278.269 239.169 277.998 239.523 277.816 239.992C277.633 240.461 277.542 241.039 277.542 241.727C277.542 242.393 277.631 242.958 277.808 243.422C277.99 243.88 278.256 244.229 278.605 244.469C278.959 244.708 279.399 244.828 279.925 244.828C280.389 244.828 280.805 244.776 281.175 244.672C281.545 244.568 281.886 244.435 282.198 244.273V245.656C281.896 245.823 281.563 245.948 281.198 246.031C280.834 246.115 280.394 246.156 279.878 246.156ZM287.841 246.156C287.049 246.156 286.356 245.997 285.763 245.68C285.169 245.362 284.708 244.878 284.38 244.227C284.057 243.57 283.895 242.742 283.895 241.742C283.895 240.701 284.07 239.849 284.419 239.188C284.768 238.521 285.249 238.029 285.864 237.711C286.484 237.393 287.192 237.234 287.989 237.234C288.458 237.234 288.895 237.281 289.302 237.375C289.713 237.469 290.057 237.586 290.333 237.727L289.864 239C289.572 238.885 289.257 238.784 288.919 238.695C288.585 238.607 288.268 238.562 287.966 238.562C287.414 238.562 286.955 238.685 286.591 238.93C286.231 239.169 285.96 239.523 285.778 239.992C285.596 240.461 285.505 241.039 285.505 241.727C285.505 242.393 285.593 242.958 285.77 243.422C285.953 243.88 286.218 244.229 286.567 244.469C286.921 244.708 287.361 244.828 287.888 244.828C288.351 244.828 288.768 244.776 289.138 244.672C289.507 244.568 289.848 244.435 290.161 244.273V245.656C289.859 245.823 289.526 245.948 289.161 246.031C288.796 246.115 288.356 246.156 287.841 246.156ZM295.717 237.234C296.467 237.234 297.11 237.396 297.647 237.719C298.183 238.036 298.595 238.487 298.881 239.07C299.168 239.654 299.311 240.341 299.311 241.133V242.023H293.467C293.483 242.945 293.72 243.654 294.178 244.148C294.636 244.638 295.28 244.883 296.108 244.883C296.655 244.883 297.142 244.831 297.569 244.727C297.996 244.622 298.439 244.469 298.897 244.266V245.586C298.465 245.784 298.03 245.927 297.592 246.016C297.16 246.109 296.642 246.156 296.037 246.156C295.204 246.156 294.472 245.99 293.842 245.656C293.217 245.323 292.73 244.831 292.381 244.18C292.032 243.523 291.858 242.716 291.858 241.758C291.858 240.81 292.017 240 292.334 239.328C292.652 238.651 293.1 238.133 293.678 237.773C294.256 237.414 294.936 237.234 295.717 237.234ZM295.709 238.453C295.074 238.453 294.564 238.661 294.178 239.078C293.793 239.49 293.566 240.081 293.498 240.852H297.733C297.728 240.378 297.652 239.961 297.506 239.602C297.36 239.242 297.139 238.961 296.842 238.758C296.551 238.555 296.173 238.453 295.709 238.453ZM307.281 243.594C307.281 244.151 307.143 244.622 306.867 245.008C306.596 245.388 306.201 245.674 305.68 245.867C305.159 246.06 304.534 246.156 303.805 246.156C303.201 246.156 302.68 246.109 302.242 246.016C301.805 245.927 301.409 245.797 301.055 245.625V244.234C301.435 244.417 301.875 244.578 302.375 244.719C302.875 244.859 303.365 244.93 303.844 244.93C304.516 244.93 305 244.823 305.297 244.609C305.599 244.396 305.75 244.107 305.75 243.742C305.75 243.529 305.69 243.341 305.57 243.18C305.451 243.013 305.24 242.849 304.938 242.688C304.641 242.521 304.214 242.331 303.656 242.117C303.109 241.904 302.641 241.69 302.25 241.477C301.865 241.263 301.57 241.005 301.367 240.703C301.164 240.401 301.062 240.01 301.062 239.531C301.062 238.786 301.359 238.219 301.953 237.828C302.552 237.432 303.341 237.234 304.32 237.234C304.841 237.234 305.331 237.286 305.789 237.391C306.253 237.495 306.695 237.641 307.117 237.828L306.609 239.039C306.234 238.878 305.849 238.745 305.453 238.641C305.057 238.531 304.654 238.477 304.242 238.477C303.706 238.477 303.294 238.562 303.008 238.734C302.727 238.906 302.586 239.143 302.586 239.445C302.586 239.68 302.651 239.875 302.781 240.031C302.917 240.188 303.141 240.341 303.453 240.492C303.766 240.638 304.188 240.812 304.719 241.016C305.245 241.214 305.698 241.419 306.078 241.633C306.464 241.846 306.76 242.107 306.969 242.414C307.177 242.721 307.281 243.115 307.281 243.594ZM315.15 243.594C315.15 244.151 315.012 244.622 314.736 245.008C314.465 245.388 314.069 245.674 313.548 245.867C313.028 246.06 312.403 246.156 311.673 246.156C311.069 246.156 310.548 246.109 310.111 246.016C309.673 245.927 309.278 245.797 308.923 245.625V244.234C309.304 244.417 309.744 244.578 310.244 244.719C310.744 244.859 311.233 244.93 311.713 244.93C312.384 244.93 312.869 244.823 313.166 244.609C313.468 244.396 313.619 244.107 313.619 243.742C313.619 243.529 313.559 243.341 313.439 243.18C313.319 243.013 313.108 242.849 312.806 242.688C312.509 242.521 312.082 242.331 311.525 242.117C310.978 241.904 310.509 241.69 310.119 241.477C309.733 241.263 309.439 241.005 309.236 240.703C309.033 240.401 308.931 240.01 308.931 239.531C308.931 238.786 309.228 238.219 309.822 237.828C310.421 237.432 311.21 237.234 312.189 237.234C312.71 237.234 313.199 237.286 313.658 237.391C314.121 237.495 314.564 237.641 314.986 237.828L314.478 239.039C314.103 238.878 313.718 238.745 313.322 238.641C312.926 238.531 312.522 238.477 312.111 238.477C311.574 238.477 311.163 238.562 310.877 238.734C310.595 238.906 310.455 239.143 310.455 239.445C310.455 239.68 310.52 239.875 310.65 240.031C310.785 240.188 311.009 240.341 311.322 240.492C311.634 240.638 312.056 240.812 312.588 241.016C313.114 241.214 313.567 241.419 313.947 241.633C314.332 241.846 314.629 242.107 314.838 242.414C315.046 242.721 315.15 243.115 315.15 243.594Z" fill="white"/>
<path d="M576.94 240L581.14 235.807C581.266 235.681 581.336 235.511 581.336 235.333C581.336 235.156 581.266 234.986 581.14 234.86C581.014 234.734 580.844 234.664 580.667 234.664C580.489 234.664 580.319 234.734 580.193 234.86L576 239.06L571.807 234.86C571.681 234.734 571.511 234.664 571.333 234.664C571.156 234.664 570.986 234.734 570.86 234.86C570.734 234.986 570.664 235.156 570.664 235.333C570.664 235.511 570.734 235.681 570.86 235.807L575.06 240L570.86 244.193C570.797 244.255 570.748 244.329 570.714 244.41C570.68 244.492 570.663 244.579 570.663 244.667C570.663 244.755 570.68 244.842 570.714 244.923C570.748 245.004 570.797 245.078 570.86 245.14C570.922 245.202 570.996 245.252 571.077 245.286C571.158 245.32 571.245 245.337 571.333 245.337C571.421 245.337 571.508 245.32 571.59 245.286C571.671 245.252 571.745 245.202 571.807 245.14L576 240.94L580.193 245.14C580.255 245.202 580.329 245.252 580.41 245.286C580.492 245.32 580.579 245.337 580.667 245.337C580.755 245.337 580.842 245.32 580.923 245.286C581.004 245.252 581.078 245.202 581.14 245.14C581.202 245.078 581.252 245.004 581.286 244.923C581.32 244.842 581.337 244.755 581.337 244.667C581.337 244.579 581.32 244.492 581.286 244.41C581.252 244.329 581.202 244.255 581.14 244.193L576.94 240Z" fill="white"/>
<path d="M259.917 270.017L262.576 265.006H263.827L260.498 271.124V275H259.336V271.179L256 265.006H257.271L259.917 270.017ZM271.74 271.24C271.74 271.855 271.66 272.405 271.501 272.888C271.341 273.371 271.111 273.779 270.811 274.111C270.51 274.444 270.145 274.699 269.717 274.877C269.293 275.05 268.812 275.137 268.274 275.137C267.773 275.137 267.313 275.05 266.894 274.877C266.479 274.699 266.119 274.444 265.813 274.111C265.513 273.779 265.278 273.371 265.109 272.888C264.945 272.405 264.863 271.855 264.863 271.24C264.863 270.42 265.002 269.723 265.28 269.148C265.558 268.57 265.955 268.13 266.47 267.829C266.989 267.524 267.607 267.371 268.322 267.371C269.006 267.371 269.603 267.524 270.113 267.829C270.628 268.134 271.027 268.576 271.31 269.155C271.597 269.729 271.74 270.424 271.74 271.24ZM266.039 271.24C266.039 271.842 266.119 272.364 266.278 272.806C266.438 273.248 266.684 273.59 267.017 273.831C267.349 274.073 267.778 274.193 268.302 274.193C268.821 274.193 269.247 274.073 269.58 273.831C269.917 273.59 270.166 273.248 270.325 272.806C270.485 272.364 270.564 271.842 270.564 271.24C270.564 270.643 270.485 270.128 270.325 269.695C270.166 269.258 269.92 268.921 269.587 268.684C269.254 268.447 268.824 268.328 268.295 268.328C267.516 268.328 266.944 268.586 266.579 269.101C266.219 269.616 266.039 270.329 266.039 271.24ZM280.139 267.508V275H279.209L279.045 273.947H278.983C278.828 274.207 278.628 274.426 278.382 274.604C278.136 274.781 277.858 274.913 277.548 275C277.243 275.091 276.917 275.137 276.57 275.137C275.978 275.137 275.481 275.041 275.08 274.85C274.679 274.658 274.376 274.362 274.171 273.961C273.97 273.56 273.87 273.045 273.87 272.416V267.508H275.019V272.334C275.019 272.958 275.16 273.425 275.442 273.735C275.725 274.041 276.156 274.193 276.734 274.193C277.29 274.193 277.732 274.089 278.061 273.879C278.393 273.669 278.632 273.362 278.778 272.956C278.924 272.546 278.997 272.045 278.997 271.452V267.508H280.139ZM286.192 267.371C286.343 267.371 286.5 267.38 286.664 267.398C286.828 267.412 286.974 267.433 287.102 267.46L286.958 268.513C286.835 268.481 286.698 268.456 286.548 268.438C286.397 268.419 286.256 268.41 286.124 268.41C285.823 268.41 285.538 268.472 285.27 268.595C285.005 268.713 284.773 268.886 284.572 269.114C284.372 269.338 284.215 269.609 284.101 269.928C283.987 270.242 283.93 270.593 283.93 270.98V275H282.788V267.508H283.731L283.854 268.889H283.902C284.057 268.611 284.244 268.358 284.463 268.13C284.682 267.897 284.935 267.713 285.222 267.576C285.513 267.439 285.837 267.371 286.192 267.371ZM295.319 275.137C294.371 275.137 293.619 274.813 293.063 274.166C292.512 273.519 292.236 272.557 292.236 271.281C292.236 269.992 292.519 269.019 293.084 268.362C293.649 267.701 294.401 267.371 295.34 267.371C295.736 267.371 296.083 267.424 296.379 267.528C296.675 267.633 296.93 267.774 297.145 267.952C297.359 268.125 297.539 268.324 297.685 268.547H297.767C297.748 268.406 297.73 268.212 297.712 267.966C297.694 267.72 297.685 267.519 297.685 267.364V264.363H298.819V275H297.903L297.732 273.934H297.685C297.543 274.157 297.363 274.36 297.145 274.542C296.93 274.724 296.673 274.87 296.372 274.979C296.076 275.084 295.725 275.137 295.319 275.137ZM295.497 274.193C296.299 274.193 296.867 273.965 297.199 273.51C297.532 273.054 297.698 272.377 297.698 271.479V271.274C297.698 270.322 297.539 269.59 297.22 269.08C296.905 268.57 296.331 268.314 295.497 268.314C294.8 268.314 294.278 268.583 293.932 269.121C293.585 269.654 293.412 270.383 293.412 271.309C293.412 272.229 293.583 272.94 293.925 273.441C294.271 273.943 294.795 274.193 295.497 274.193ZM304.278 267.385C305.172 267.385 305.835 267.585 306.268 267.986C306.701 268.387 306.917 269.028 306.917 269.907V275H306.09L305.871 273.893H305.816C305.607 274.166 305.388 274.396 305.16 274.583C304.932 274.765 304.668 274.904 304.367 275C304.071 275.091 303.706 275.137 303.273 275.137C302.818 275.137 302.412 275.057 302.057 274.897C301.706 274.738 301.428 274.496 301.223 274.173C301.022 273.849 300.922 273.439 300.922 272.942C300.922 272.195 301.218 271.621 301.811 271.22C302.403 270.819 303.305 270.6 304.518 270.563L305.81 270.509V270.051C305.81 269.404 305.671 268.95 305.393 268.69C305.115 268.431 304.723 268.301 304.217 268.301C303.825 268.301 303.451 268.358 303.096 268.472C302.74 268.586 302.403 268.72 302.084 268.875L301.735 268.014C302.073 267.84 302.46 267.692 302.897 267.569C303.335 267.446 303.795 267.385 304.278 267.385ZM305.796 271.309L304.654 271.356C303.72 271.393 303.062 271.546 302.679 271.814C302.296 272.083 302.104 272.464 302.104 272.956C302.104 273.384 302.234 273.701 302.494 273.906C302.754 274.111 303.098 274.214 303.526 274.214C304.192 274.214 304.736 274.029 305.16 273.66C305.584 273.291 305.796 272.737 305.796 271.999V271.309ZM311.925 274.207C312.112 274.207 312.303 274.191 312.499 274.159C312.695 274.127 312.854 274.089 312.978 274.043V274.925C312.845 274.984 312.661 275.034 312.424 275.075C312.191 275.116 311.964 275.137 311.74 275.137C311.344 275.137 310.984 275.068 310.66 274.932C310.337 274.79 310.077 274.553 309.881 274.221C309.689 273.888 309.594 273.428 309.594 272.84V268.396H308.527V267.843L309.601 267.398L310.052 265.771H310.735V267.508H312.93V268.396H310.735V272.806C310.735 273.275 310.842 273.626 311.057 273.858C311.275 274.091 311.565 274.207 311.925 274.207ZM317.548 267.385C318.441 267.385 319.104 267.585 319.537 267.986C319.97 268.387 320.187 269.028 320.187 269.907V275H319.359L319.141 273.893H319.086C318.876 274.166 318.658 274.396 318.43 274.583C318.202 274.765 317.938 274.904 317.637 275C317.34 275.091 316.976 275.137 316.543 275.137C316.087 275.137 315.682 275.057 315.326 274.897C314.975 274.738 314.697 274.496 314.492 274.173C314.292 273.849 314.191 273.439 314.191 272.942C314.191 272.195 314.488 271.621 315.08 271.22C315.673 270.819 316.575 270.6 317.787 270.563L319.079 270.509V270.051C319.079 269.404 318.94 268.95 318.662 268.69C318.384 268.431 317.992 268.301 317.486 268.301C317.094 268.301 316.721 268.358 316.365 268.472C316.01 268.586 315.673 268.72 315.354 268.875L315.005 268.014C315.342 267.84 315.729 267.692 316.167 267.569C316.604 267.446 317.065 267.385 317.548 267.385ZM319.065 271.309L317.924 271.356C316.99 271.393 316.331 271.546 315.948 271.814C315.565 272.083 315.374 272.464 315.374 272.956C315.374 273.384 315.504 273.701 315.764 273.906C316.023 274.111 316.368 274.214 316.796 274.214C317.461 274.214 318.006 274.029 318.43 273.66C318.854 273.291 319.065 272.737 319.065 271.999V271.309ZM327.796 264.363V267.542C327.796 267.724 327.791 267.909 327.782 268.096C327.773 268.278 327.757 268.447 327.734 268.602H327.81C327.965 268.337 328.16 268.116 328.397 267.938C328.639 267.756 328.912 267.619 329.218 267.528C329.523 267.433 329.847 267.385 330.188 267.385C330.79 267.385 331.291 267.48 331.692 267.672C332.098 267.863 332.401 268.16 332.602 268.561C332.807 268.962 332.909 269.481 332.909 270.119V275H331.788V270.194C331.788 269.57 331.645 269.103 331.357 268.793C331.075 268.483 330.64 268.328 330.052 268.328C329.496 268.328 329.051 268.435 328.719 268.649C328.391 268.859 328.154 269.169 328.008 269.579C327.867 269.989 327.796 270.491 327.796 271.083V275H326.661V264.363H327.796ZM338.3 267.385C339.193 267.385 339.856 267.585 340.289 267.986C340.722 268.387 340.938 269.028 340.938 269.907V275H340.111L339.893 273.893H339.838C339.628 274.166 339.41 274.396 339.182 274.583C338.954 274.765 338.689 274.904 338.389 275C338.092 275.091 337.728 275.137 337.295 275.137C336.839 275.137 336.434 275.057 336.078 274.897C335.727 274.738 335.449 274.496 335.244 274.173C335.044 273.849 334.943 273.439 334.943 272.942C334.943 272.195 335.24 271.621 335.832 271.22C336.424 270.819 337.327 270.6 338.539 270.563L339.831 270.509V270.051C339.831 269.404 339.692 268.95 339.414 268.69C339.136 268.431 338.744 268.301 338.238 268.301C337.846 268.301 337.473 268.358 337.117 268.472C336.762 268.586 336.424 268.72 336.105 268.875L335.757 268.014C336.094 267.84 336.481 267.692 336.919 267.569C337.356 267.446 337.817 267.385 338.3 267.385ZM339.817 271.309L338.676 271.356C337.742 271.393 337.083 271.546 336.7 271.814C336.317 272.083 336.126 272.464 336.126 272.956C336.126 273.384 336.256 273.701 336.516 273.906C336.775 274.111 337.119 274.214 337.548 274.214C338.213 274.214 338.758 274.029 339.182 273.66C339.605 273.291 339.817 272.737 339.817 271.999V271.309ZM348.373 272.949C348.373 273.428 348.252 273.831 348.011 274.159C347.774 274.483 347.432 274.727 346.985 274.891C346.543 275.055 346.015 275.137 345.399 275.137C344.875 275.137 344.422 275.096 344.039 275.014C343.656 274.932 343.321 274.815 343.034 274.665V273.619C343.34 273.77 343.704 273.906 344.128 274.029C344.552 274.152 344.985 274.214 345.427 274.214C346.074 274.214 346.543 274.109 346.835 273.899C347.127 273.69 347.272 273.405 347.272 273.045C347.272 272.84 347.213 272.66 347.095 272.505C346.981 272.345 346.787 272.193 346.514 272.047C346.24 271.896 345.862 271.732 345.379 271.555C344.9 271.372 344.486 271.192 344.135 271.015C343.788 270.832 343.52 270.611 343.328 270.352C343.141 270.092 343.048 269.755 343.048 269.34C343.048 268.706 343.303 268.221 343.813 267.884C344.328 267.542 345.003 267.371 345.837 267.371C346.288 267.371 346.71 267.417 347.102 267.508C347.498 267.594 347.867 267.713 348.209 267.863L347.826 268.772C347.516 268.64 347.186 268.529 346.835 268.438C346.484 268.346 346.126 268.301 345.762 268.301C345.238 268.301 344.834 268.387 344.552 268.561C344.274 268.734 344.135 268.971 344.135 269.271C344.135 269.504 344.199 269.695 344.326 269.846C344.458 269.996 344.668 270.137 344.955 270.27C345.242 270.402 345.62 270.557 346.09 270.734C346.559 270.908 346.965 271.088 347.307 271.274C347.648 271.457 347.91 271.68 348.093 271.944C348.28 272.204 348.373 272.539 348.373 272.949ZM355.47 264.363V267.022C355.47 267.328 355.461 267.624 355.442 267.911C355.429 268.198 355.417 268.422 355.408 268.581H355.47C355.675 268.244 355.971 267.959 356.358 267.727C356.746 267.494 357.24 267.378 357.842 267.378C358.781 267.378 359.528 267.704 360.084 268.355C360.645 269.003 360.925 269.966 360.925 271.247C360.925 272.09 360.797 272.801 360.542 273.38C360.287 273.959 359.927 274.396 359.462 274.692C358.997 274.989 358.448 275.137 357.814 275.137C357.222 275.137 356.734 275.027 356.352 274.809C355.973 274.585 355.682 274.314 355.477 273.995H355.388L355.155 275H354.335V264.363H355.47ZM357.657 268.328C357.115 268.328 356.684 268.435 356.365 268.649C356.046 268.859 355.816 269.178 355.675 269.606C355.538 270.03 355.47 270.568 355.47 271.22V271.281C355.47 272.225 355.627 272.947 355.941 273.448C356.256 273.945 356.828 274.193 357.657 274.193C358.354 274.193 358.876 273.938 359.223 273.428C359.574 272.917 359.749 272.188 359.749 271.24C359.749 270.274 359.576 269.547 359.229 269.06C358.888 268.572 358.364 268.328 357.657 268.328ZM366.042 267.371C366.68 267.371 367.227 267.512 367.683 267.795C368.138 268.077 368.487 268.474 368.729 268.984C368.97 269.49 369.091 270.083 369.091 270.762V271.466H363.916C363.93 272.345 364.148 273.015 364.572 273.476C364.996 273.936 365.593 274.166 366.363 274.166C366.837 274.166 367.257 274.123 367.621 274.036C367.986 273.95 368.364 273.822 368.756 273.653V274.651C368.378 274.82 368.002 274.943 367.628 275.021C367.259 275.098 366.821 275.137 366.315 275.137C365.595 275.137 364.966 274.991 364.429 274.699C363.896 274.403 363.481 273.97 363.185 273.4C362.888 272.831 362.74 272.133 362.74 271.309C362.74 270.502 362.875 269.805 363.144 269.217C363.417 268.624 363.8 268.169 364.292 267.85C364.789 267.531 365.372 267.371 366.042 267.371ZM366.028 268.301C365.422 268.301 364.939 268.499 364.579 268.896C364.219 269.292 364.005 269.846 363.937 270.557H367.901C367.897 270.11 367.826 269.718 367.689 269.381C367.557 269.039 367.354 268.775 367.081 268.588C366.808 268.396 366.457 268.301 366.028 268.301ZM374.153 267.371C374.791 267.371 375.338 267.512 375.794 267.795C376.25 268.077 376.598 268.474 376.84 268.984C377.081 269.49 377.202 270.083 377.202 270.762V271.466H372.027C372.041 272.345 372.26 273.015 372.684 273.476C373.107 273.936 373.704 274.166 374.475 274.166C374.949 274.166 375.368 274.123 375.732 274.036C376.097 273.95 376.475 273.822 376.867 273.653V274.651C376.489 274.82 376.113 274.943 375.739 275.021C375.37 275.098 374.933 275.137 374.427 275.137C373.707 275.137 373.078 274.991 372.54 274.699C372.007 274.403 371.592 273.97 371.296 273.4C371 272.831 370.852 272.133 370.852 271.309C370.852 270.502 370.986 269.805 371.255 269.217C371.528 268.624 371.911 268.169 372.403 267.85C372.9 267.531 373.483 267.371 374.153 267.371ZM374.14 268.301C373.534 268.301 373.05 268.499 372.69 268.896C372.33 269.292 372.116 269.846 372.048 270.557H376.013C376.008 270.11 375.938 269.718 375.801 269.381C375.669 269.039 375.466 268.775 375.192 268.588C374.919 268.396 374.568 268.301 374.14 268.301ZM382.928 267.371C383.816 267.371 384.489 267.59 384.944 268.027C385.4 268.46 385.628 269.158 385.628 270.119V275H384.507V270.194C384.507 269.57 384.363 269.103 384.076 268.793C383.794 268.483 383.358 268.328 382.771 268.328C381.941 268.328 381.358 268.563 381.021 269.032C380.683 269.502 380.515 270.183 380.515 271.076V275H379.38V267.508H380.296L380.467 268.588H380.528C380.688 268.324 380.891 268.103 381.137 267.925C381.383 267.743 381.659 267.606 381.964 267.515C382.269 267.419 382.59 267.371 382.928 267.371ZM396.949 272.949C396.949 273.428 396.828 273.831 396.587 274.159C396.35 274.483 396.008 274.727 395.562 274.891C395.119 275.055 394.591 275.137 393.976 275.137C393.451 275.137 392.998 275.096 392.615 275.014C392.232 274.932 391.897 274.815 391.61 274.665V273.619C391.916 273.77 392.28 273.906 392.704 274.029C393.128 274.152 393.561 274.214 394.003 274.214C394.65 274.214 395.119 274.109 395.411 273.899C395.703 273.69 395.849 273.405 395.849 273.045C395.849 272.84 395.789 272.66 395.671 272.505C395.557 272.345 395.363 272.193 395.09 272.047C394.816 271.896 394.438 271.732 393.955 271.555C393.477 271.372 393.062 271.192 392.711 271.015C392.365 270.832 392.096 270.611 391.904 270.352C391.717 270.092 391.624 269.755 391.624 269.34C391.624 268.706 391.879 268.221 392.39 267.884C392.905 267.542 393.579 267.371 394.413 267.371C394.864 267.371 395.286 267.417 395.678 267.508C396.074 267.594 396.443 267.713 396.785 267.863L396.402 268.772C396.092 268.64 395.762 268.529 395.411 268.438C395.06 268.346 394.702 268.301 394.338 268.301C393.814 268.301 393.41 268.387 393.128 268.561C392.85 268.734 392.711 268.971 392.711 269.271C392.711 269.504 392.775 269.695 392.902 269.846C393.035 269.996 393.244 270.137 393.531 270.27C393.818 270.402 394.197 270.557 394.666 270.734C395.135 270.908 395.541 271.088 395.883 271.274C396.225 271.457 396.487 271.68 396.669 271.944C396.856 272.204 396.949 272.539 396.949 272.949ZM405.211 267.508V275H404.281L404.117 273.947H404.056C403.901 274.207 403.7 274.426 403.454 274.604C403.208 274.781 402.93 274.913 402.62 275C402.315 275.091 401.989 275.137 401.643 275.137C401.05 275.137 400.553 275.041 400.152 274.85C399.751 274.658 399.448 274.362 399.243 273.961C399.043 273.56 398.942 273.045 398.942 272.416V267.508H400.091V272.334C400.091 272.958 400.232 273.425 400.515 273.735C400.797 274.041 401.228 274.193 401.807 274.193C402.363 274.193 402.805 274.089 403.133 273.879C403.465 273.669 403.705 273.362 403.851 272.956C403.996 272.546 404.069 272.045 404.069 271.452V267.508H405.211ZM410.861 275.137C410.187 275.137 409.592 274.998 409.077 274.72C408.562 274.442 408.161 274.018 407.874 273.448C407.587 272.879 407.443 272.161 407.443 271.295C407.443 270.388 407.594 269.647 407.895 269.073C408.2 268.494 408.619 268.066 409.152 267.788C409.686 267.51 410.292 267.371 410.971 267.371C411.344 267.371 411.704 267.41 412.051 267.487C412.402 267.56 412.689 267.654 412.912 267.768L412.57 268.718C412.342 268.627 412.078 268.545 411.777 268.472C411.481 268.399 411.203 268.362 410.943 268.362C410.424 268.362 409.991 268.474 409.645 268.697C409.303 268.921 409.045 269.249 408.872 269.682C408.703 270.115 408.619 270.648 408.619 271.281C408.619 271.887 408.701 272.405 408.865 272.833C409.034 273.261 409.282 273.59 409.61 273.817C409.943 274.041 410.358 274.152 410.854 274.152C411.251 274.152 411.609 274.111 411.928 274.029C412.247 273.943 412.536 273.842 412.796 273.729V274.74C412.545 274.868 412.265 274.966 411.955 275.034C411.65 275.103 411.285 275.137 410.861 275.137ZM417.824 275.137C417.15 275.137 416.555 274.998 416.04 274.72C415.525 274.442 415.124 274.018 414.837 273.448C414.55 272.879 414.406 272.161 414.406 271.295C414.406 270.388 414.557 269.647 414.857 269.073C415.163 268.494 415.582 268.066 416.115 267.788C416.648 267.51 417.255 267.371 417.934 267.371C418.307 267.371 418.667 267.41 419.014 267.487C419.365 267.56 419.652 267.654 419.875 267.768L419.533 268.718C419.305 268.627 419.041 268.545 418.74 268.472C418.444 268.399 418.166 268.362 417.906 268.362C417.387 268.362 416.954 268.474 416.607 268.697C416.266 268.921 416.008 269.249 415.835 269.682C415.666 270.115 415.582 270.648 415.582 271.281C415.582 271.887 415.664 272.405 415.828 272.833C415.997 273.261 416.245 273.59 416.573 273.817C416.906 274.041 417.321 274.152 417.817 274.152C418.214 274.152 418.572 274.111 418.891 274.029C419.21 273.943 419.499 273.842 419.759 273.729V274.74C419.508 274.868 419.228 274.966 418.918 275.034C418.613 275.103 418.248 275.137 417.824 275.137ZM424.671 267.371C425.309 267.371 425.856 267.512 426.312 267.795C426.767 268.077 427.116 268.474 427.357 268.984C427.599 269.49 427.72 270.083 427.72 270.762V271.466H422.545C422.559 272.345 422.777 273.015 423.201 273.476C423.625 273.936 424.222 274.166 424.992 274.166C425.466 274.166 425.885 274.123 426.25 274.036C426.615 273.95 426.993 273.822 427.385 273.653V274.651C427.007 274.82 426.631 274.943 426.257 275.021C425.888 275.098 425.45 275.137 424.944 275.137C424.224 275.137 423.595 274.991 423.058 274.699C422.524 274.403 422.11 273.97 421.813 273.4C421.517 272.831 421.369 272.133 421.369 271.309C421.369 270.502 421.504 269.805 421.772 269.217C422.046 268.624 422.429 268.169 422.921 267.85C423.418 267.531 424.001 267.371 424.671 267.371ZM424.657 268.301C424.051 268.301 423.568 268.499 423.208 268.896C422.848 269.292 422.634 269.846 422.565 270.557H426.53C426.526 270.11 426.455 269.718 426.318 269.381C426.186 269.039 425.983 268.775 425.71 268.588C425.437 268.396 425.086 268.301 424.657 268.301ZM434.744 272.949C434.744 273.428 434.623 273.831 434.382 274.159C434.145 274.483 433.803 274.727 433.356 274.891C432.914 275.055 432.386 275.137 431.771 275.137C431.246 275.137 430.793 275.096 430.41 275.014C430.027 274.932 429.692 274.815 429.405 274.665V273.619C429.711 273.77 430.075 273.906 430.499 274.029C430.923 274.152 431.356 274.214 431.798 274.214C432.445 274.214 432.914 274.109 433.206 273.899C433.498 273.69 433.644 273.405 433.644 273.045C433.644 272.84 433.584 272.66 433.466 272.505C433.352 272.345 433.158 272.193 432.885 272.047C432.611 271.896 432.233 271.732 431.75 271.555C431.271 271.372 430.857 271.192 430.506 271.015C430.16 270.832 429.891 270.611 429.699 270.352C429.512 270.092 429.419 269.755 429.419 269.34C429.419 268.706 429.674 268.221 430.185 267.884C430.7 267.542 431.374 267.371 432.208 267.371C432.659 267.371 433.081 267.417 433.473 267.508C433.869 267.594 434.238 267.713 434.58 267.863L434.197 268.772C433.887 268.64 433.557 268.529 433.206 268.438C432.855 268.346 432.497 268.301 432.133 268.301C431.609 268.301 431.205 268.387 430.923 268.561C430.645 268.734 430.506 268.971 430.506 269.271C430.506 269.504 430.57 269.695 430.697 269.846C430.829 269.996 431.039 270.137 431.326 270.27C431.613 270.402 431.992 270.557 432.461 270.734C432.93 270.908 433.336 271.088 433.678 271.274C434.02 271.457 434.282 271.68 434.464 271.944C434.651 272.204 434.744 272.539 434.744 272.949ZM441.666 272.949C441.666 273.428 441.545 273.831 441.304 274.159C441.067 274.483 440.725 274.727 440.278 274.891C439.836 275.055 439.308 275.137 438.692 275.137C438.168 275.137 437.715 275.096 437.332 275.014C436.949 274.932 436.614 274.815 436.327 274.665V273.619C436.632 273.77 436.997 273.906 437.421 274.029C437.845 274.152 438.278 274.214 438.72 274.214C439.367 274.214 439.836 274.109 440.128 273.899C440.42 273.69 440.565 273.405 440.565 273.045C440.565 272.84 440.506 272.66 440.388 272.505C440.274 272.345 440.08 272.193 439.807 272.047C439.533 271.896 439.155 271.732 438.672 271.555C438.193 271.372 437.779 271.192 437.428 271.015C437.081 270.832 436.812 270.611 436.621 270.352C436.434 270.092 436.341 269.755 436.341 269.34C436.341 268.706 436.596 268.221 437.106 267.884C437.621 267.542 438.296 267.371 439.13 267.371C439.581 267.371 440.003 267.417 440.395 267.508C440.791 267.594 441.16 267.713 441.502 267.863L441.119 268.772C440.809 268.64 440.479 268.529 440.128 268.438C439.777 268.346 439.419 268.301 439.055 268.301C438.531 268.301 438.127 268.387 437.845 268.561C437.567 268.734 437.428 268.971 437.428 269.271C437.428 269.504 437.492 269.695 437.619 269.846C437.751 269.996 437.961 270.137 438.248 270.27C438.535 270.402 438.913 270.557 439.383 270.734C439.852 270.908 440.258 271.088 440.6 271.274C440.941 271.457 441.203 271.68 441.386 271.944C441.573 272.204 441.666 272.539 441.666 272.949ZM447.077 268.396H445.211V275H444.076V268.396H442.75V267.85L444.076 267.474V266.975C444.076 266.346 444.17 265.835 444.356 265.443C444.543 265.047 444.814 264.755 445.17 264.568C445.525 264.382 445.958 264.288 446.469 264.288C446.756 264.288 447.018 264.313 447.255 264.363C447.496 264.413 447.708 264.47 447.891 264.534L447.597 265.43C447.442 265.38 447.266 265.334 447.07 265.293C446.879 265.247 446.683 265.225 446.482 265.225C446.049 265.225 445.728 265.366 445.519 265.648C445.313 265.926 445.211 266.364 445.211 266.961V267.508H447.077V268.396ZM454.895 267.508V275H453.965L453.801 273.947H453.739C453.584 274.207 453.384 274.426 453.138 274.604C452.892 274.781 452.614 274.913 452.304 275C451.998 275.091 451.673 275.137 451.326 275.137C450.734 275.137 450.237 275.041 449.836 274.85C449.435 274.658 449.132 274.362 448.927 273.961C448.726 273.56 448.626 273.045 448.626 272.416V267.508H449.774V272.334C449.774 272.958 449.916 273.425 450.198 273.735C450.481 274.041 450.911 274.193 451.49 274.193C452.046 274.193 452.488 274.089 452.816 273.879C453.149 273.669 453.388 273.362 453.534 272.956C453.68 272.546 453.753 272.045 453.753 271.452V267.508H454.895ZM458.686 275H457.544V264.363H458.686V275ZM462.477 275H461.335V264.363H462.477V275ZM463.943 267.508H465.16L466.814 271.855C466.91 272.111 466.999 272.357 467.081 272.594C467.163 272.826 467.236 273.049 467.3 273.264C467.364 273.478 467.414 273.685 467.45 273.886H467.498C467.562 273.658 467.653 273.359 467.771 272.99C467.89 272.617 468.018 272.236 468.154 271.849L469.72 267.508H470.943L467.683 276.101C467.509 276.561 467.307 276.962 467.074 277.304C466.846 277.646 466.568 277.908 466.24 278.09C465.912 278.277 465.516 278.37 465.051 278.37C464.837 278.37 464.647 278.356 464.483 278.329C464.319 278.306 464.178 278.279 464.06 278.247V277.338C464.16 277.361 464.281 277.381 464.422 277.399C464.568 277.418 464.718 277.427 464.873 277.427C465.156 277.427 465.399 277.372 465.604 277.263C465.814 277.158 465.994 277.003 466.145 276.798C466.295 276.593 466.425 276.349 466.534 276.066L466.944 275.014L463.943 267.508ZM477.411 267.508V275H476.276V267.508H477.411ZM476.857 264.705C477.044 264.705 477.204 264.767 477.336 264.89C477.473 265.008 477.541 265.195 477.541 265.45C477.541 265.701 477.473 265.888 477.336 266.011C477.204 266.134 477.044 266.195 476.857 266.195C476.661 266.195 476.497 266.134 476.365 266.011C476.238 265.888 476.174 265.701 476.174 265.45C476.174 265.195 476.238 265.008 476.365 264.89C476.497 264.767 476.661 264.705 476.857 264.705ZM488.202 267.371C489.027 267.371 489.649 267.588 490.068 268.021C490.488 268.449 490.697 269.139 490.697 270.092V275H489.576V270.146C489.576 269.54 489.444 269.087 489.18 268.786C488.92 268.481 488.533 268.328 488.018 268.328C487.293 268.328 486.767 268.538 486.438 268.957C486.11 269.376 485.946 269.994 485.946 270.81V275H484.818V270.146C484.818 269.741 484.759 269.404 484.641 269.135C484.527 268.866 484.354 268.665 484.121 268.533C483.893 268.396 483.604 268.328 483.253 268.328C482.756 268.328 482.357 268.431 482.057 268.636C481.756 268.841 481.537 269.146 481.4 269.552C481.268 269.953 481.202 270.447 481.202 271.035V275H480.067V267.508H480.983L481.154 268.567H481.216C481.366 268.308 481.555 268.089 481.783 267.911C482.011 267.733 482.266 267.599 482.549 267.508C482.831 267.417 483.132 267.371 483.451 267.371C484.021 267.371 484.497 267.478 484.88 267.692C485.267 267.902 485.548 268.223 485.721 268.656H485.782C486.028 268.223 486.366 267.902 486.794 267.692C487.222 267.478 487.692 267.371 488.202 267.371ZM496.799 267.371C497.733 267.371 498.478 267.692 499.034 268.335C499.59 268.978 499.868 269.944 499.868 271.233C499.868 272.086 499.741 272.801 499.485 273.38C499.23 273.959 498.87 274.396 498.405 274.692C497.945 274.989 497.4 275.137 496.771 275.137C496.375 275.137 496.026 275.084 495.726 274.979C495.425 274.875 495.167 274.733 494.953 274.556C494.739 274.378 494.561 274.184 494.42 273.975H494.338C494.352 274.152 494.368 274.367 494.386 274.617C494.409 274.868 494.42 275.087 494.42 275.273V278.35H493.278V267.508H494.215L494.365 268.615H494.42C494.566 268.387 494.743 268.18 494.953 267.993C495.163 267.802 495.418 267.651 495.719 267.542C496.024 267.428 496.384 267.371 496.799 267.371ZM496.601 268.328C496.081 268.328 495.662 268.428 495.343 268.629C495.028 268.829 494.798 269.13 494.652 269.531C494.507 269.928 494.429 270.427 494.42 271.028V271.247C494.42 271.881 494.488 272.416 494.625 272.854C494.766 273.291 494.996 273.624 495.315 273.852C495.639 274.079 496.072 274.193 496.614 274.193C497.079 274.193 497.466 274.068 497.776 273.817C498.086 273.567 498.316 273.218 498.467 272.771C498.622 272.32 498.699 271.803 498.699 271.22C498.699 270.336 498.526 269.634 498.18 269.114C497.838 268.59 497.312 268.328 496.601 268.328ZM508.561 271.24C508.561 271.855 508.481 272.405 508.321 272.888C508.162 273.371 507.932 273.779 507.631 274.111C507.33 274.444 506.965 274.699 506.537 274.877C506.113 275.05 505.632 275.137 505.095 275.137C504.593 275.137 504.133 275.05 503.714 274.877C503.299 274.699 502.939 274.444 502.634 274.111C502.333 273.779 502.098 273.371 501.93 272.888C501.766 272.405 501.684 271.855 501.684 271.24C501.684 270.42 501.823 269.723 502.101 269.148C502.379 268.57 502.775 268.13 503.29 267.829C503.81 267.524 504.427 267.371 505.143 267.371C505.826 267.371 506.423 267.524 506.934 267.829C507.449 268.134 507.847 268.576 508.13 269.155C508.417 269.729 508.561 270.424 508.561 271.24ZM502.859 271.24C502.859 271.842 502.939 272.364 503.099 272.806C503.258 273.248 503.504 273.59 503.837 273.831C504.17 274.073 504.598 274.193 505.122 274.193C505.642 274.193 506.068 274.073 506.4 273.831C506.738 273.59 506.986 273.248 507.146 272.806C507.305 272.364 507.385 271.842 507.385 271.24C507.385 270.643 507.305 270.128 507.146 269.695C506.986 269.258 506.74 268.921 506.407 268.684C506.075 268.447 505.644 268.328 505.115 268.328C504.336 268.328 503.764 268.586 503.399 269.101C503.039 269.616 502.859 270.329 502.859 271.24ZM514.177 267.371C514.327 267.371 514.484 267.38 514.648 267.398C514.812 267.412 514.958 267.433 515.086 267.46L514.942 268.513C514.819 268.481 514.683 268.456 514.532 268.438C514.382 268.419 514.241 268.41 514.108 268.41C513.808 268.41 513.523 268.472 513.254 268.595C512.99 268.713 512.757 268.886 512.557 269.114C512.356 269.338 512.199 269.609 512.085 269.928C511.971 270.242 511.914 270.593 511.914 270.98V275H510.772V267.508H511.716L511.839 268.889H511.887C512.042 268.611 512.229 268.358 512.447 268.13C512.666 267.897 512.919 267.713 513.206 267.576C513.498 267.439 513.821 267.371 514.177 267.371ZM519.171 274.207C519.358 274.207 519.549 274.191 519.745 274.159C519.941 274.127 520.101 274.089 520.224 274.043V274.925C520.091 274.984 519.907 275.034 519.67 275.075C519.438 275.116 519.21 275.137 518.986 275.137C518.59 275.137 518.23 275.068 517.906 274.932C517.583 274.79 517.323 274.553 517.127 274.221C516.936 273.888 516.84 273.428 516.84 272.84V268.396H515.773V267.843L516.847 267.398L517.298 265.771H517.981V267.508H520.176V268.396H517.981V272.806C517.981 273.275 518.089 273.626 518.303 273.858C518.521 274.091 518.811 274.207 519.171 274.207ZM524.876 267.371C525.514 267.371 526.061 267.512 526.517 267.795C526.972 268.077 527.321 268.474 527.562 268.984C527.804 269.49 527.925 270.083 527.925 270.762V271.466H522.75C522.764 272.345 522.982 273.015 523.406 273.476C523.83 273.936 524.427 274.166 525.197 274.166C525.671 274.166 526.09 274.123 526.455 274.036C526.82 273.95 527.198 273.822 527.59 273.653V274.651C527.212 274.82 526.836 274.943 526.462 275.021C526.093 275.098 525.655 275.137 525.149 275.137C524.429 275.137 523.8 274.991 523.263 274.699C522.729 274.403 522.315 273.97 522.019 273.4C521.722 272.831 521.574 272.133 521.574 271.309C521.574 270.502 521.709 269.805 521.978 269.217C522.251 268.624 522.634 268.169 523.126 267.85C523.623 267.531 524.206 267.371 524.876 267.371ZM524.862 268.301C524.256 268.301 523.773 268.499 523.413 268.896C523.053 269.292 522.839 269.846 522.771 270.557H526.735C526.731 270.11 526.66 269.718 526.523 269.381C526.391 269.039 526.188 268.775 525.915 268.588C525.642 268.396 525.291 268.301 524.862 268.301ZM532.769 275.137C531.821 275.137 531.069 274.813 530.513 274.166C529.961 273.519 529.686 272.557 529.686 271.281C529.686 269.992 529.968 269.019 530.533 268.362C531.098 267.701 531.85 267.371 532.789 267.371C533.186 267.371 533.532 267.424 533.828 267.528C534.124 267.633 534.38 267.774 534.594 267.952C534.808 268.125 534.988 268.324 535.134 268.547H535.216C535.198 268.406 535.179 268.212 535.161 267.966C535.143 267.72 535.134 267.519 535.134 267.364V264.363H536.269V275H535.353L535.182 273.934H535.134C534.993 274.157 534.812 274.36 534.594 274.542C534.38 274.724 534.122 274.87 533.821 274.979C533.525 275.084 533.174 275.137 532.769 275.137ZM532.946 274.193C533.748 274.193 534.316 273.965 534.648 273.51C534.981 273.054 535.147 272.377 535.147 271.479V271.274C535.147 270.322 534.988 269.59 534.669 269.08C534.354 268.57 533.78 268.314 532.946 268.314C532.249 268.314 531.727 268.583 531.381 269.121C531.035 269.654 530.861 270.383 530.861 271.309C530.861 272.229 531.032 272.94 531.374 273.441C531.72 273.943 532.244 274.193 532.946 274.193Z" fill="white"/>
</g>
<g clip-path="url(#clip0_328_12088)">
<g filter="url(#filter2_d_328_12088)">
<rect x="109" y="57" width="239" height="32" rx="8" fill="#0E7490"/>
<path d="M132.652 69.4336V74.9766C132.652 75.582 132.529 76.1211 132.283 76.5938C132.041 77.0664 131.674 77.4395 131.182 77.7129C130.689 77.9824 130.072 78.1172 129.33 78.1172C128.271 78.1172 127.465 77.8301 126.91 77.2559C126.359 76.6816 126.084 75.9141 126.084 74.9531V69.4336H127.086V74.9824C127.086 75.709 127.277 76.2695 127.66 76.6641C128.047 77.0586 128.623 77.2559 129.389 77.2559C129.912 77.2559 130.34 77.1621 130.672 76.9746C131.008 76.7832 131.256 76.5176 131.416 76.1777C131.58 75.834 131.662 75.4375 131.662 74.9883V69.4336H132.652ZM139.334 76.2422C139.334 76.6523 139.23 76.998 139.023 77.2793C138.82 77.5566 138.527 77.7656 138.144 77.9062C137.765 78.0469 137.312 78.1172 136.785 78.1172C136.336 78.1172 135.947 78.082 135.619 78.0117C135.291 77.9414 135.004 77.8418 134.757 77.7129V76.8164C135.019 76.9453 135.332 77.0625 135.695 77.168C136.058 77.2734 136.429 77.3262 136.808 77.3262C137.363 77.3262 137.765 77.2363 138.015 77.0566C138.265 76.877 138.39 76.6328 138.39 76.3242C138.39 76.1484 138.339 75.9941 138.238 75.8613C138.14 75.7246 137.974 75.5938 137.74 75.4688C137.505 75.3398 137.181 75.1992 136.767 75.0469C136.357 74.8906 136.002 74.7363 135.701 74.584C135.404 74.4277 135.173 74.2383 135.009 74.0156C134.849 73.793 134.769 73.5039 134.769 73.1484C134.769 72.6055 134.988 72.1895 135.425 71.9004C135.867 71.6074 136.445 71.4609 137.16 71.4609C137.546 71.4609 137.908 71.5 138.244 71.5781C138.584 71.6523 138.9 71.7539 139.193 71.8828L138.865 72.6621C138.599 72.5488 138.316 72.4531 138.015 72.375C137.714 72.2969 137.408 72.2578 137.095 72.2578C136.646 72.2578 136.3 72.332 136.058 72.4805C135.82 72.6289 135.701 72.832 135.701 73.0898C135.701 73.2891 135.755 73.4531 135.865 73.582C135.978 73.7109 136.158 73.832 136.404 73.9453C136.65 74.0586 136.974 74.1914 137.377 74.3438C137.779 74.4922 138.127 74.6465 138.42 74.8066C138.712 74.9629 138.937 75.1543 139.093 75.3809C139.254 75.6035 139.334 75.8906 139.334 76.2422ZM142.271 71.5781V78H141.298V71.5781H142.271ZM141.796 69.1758C141.956 69.1758 142.093 69.2285 142.206 69.334C142.323 69.4355 142.382 69.5957 142.382 69.8145C142.382 70.0293 142.323 70.1895 142.206 70.2949C142.093 70.4004 141.956 70.4531 141.796 70.4531C141.628 70.4531 141.488 70.4004 141.374 70.2949C141.265 70.1895 141.21 70.0293 141.21 69.8145C141.21 69.5957 141.265 69.4355 141.374 69.334C141.488 69.2285 141.628 69.1758 141.796 69.1758ZM147.774 71.4609C148.536 71.4609 149.112 71.6484 149.503 72.0234C149.893 72.3945 150.089 72.9922 150.089 73.8164V78H149.128V73.8809C149.128 73.3457 149.005 72.9453 148.759 72.6797C148.516 72.4141 148.143 72.2812 147.639 72.2812C146.929 72.2812 146.429 72.4824 146.139 72.8848C145.85 73.2871 145.706 73.8711 145.706 74.6367V78H144.733V71.5781H145.518L145.665 72.5039H145.718C145.854 72.2773 146.028 72.0879 146.239 71.9355C146.45 71.7793 146.686 71.6621 146.948 71.584C147.21 71.502 147.485 71.4609 147.774 71.4609ZM154.286 80.8828C153.442 80.8828 152.791 80.7246 152.334 80.4082C151.877 80.0957 151.649 79.6562 151.649 79.0898C151.649 78.6875 151.776 78.3438 152.03 78.0586C152.288 77.7734 152.643 77.584 153.096 77.4902C152.928 77.4121 152.784 77.2949 152.663 77.1387C152.545 76.9824 152.487 76.8027 152.487 76.5996C152.487 76.3652 152.551 76.1602 152.68 75.9844C152.813 75.8047 153.014 75.6328 153.284 75.4688C152.948 75.332 152.674 75.1016 152.463 74.7773C152.256 74.4492 152.153 74.0684 152.153 73.6348C152.153 73.1738 152.248 72.7812 152.44 72.457C152.631 72.1289 152.909 71.8789 153.272 71.707C153.635 71.5352 154.075 71.4492 154.59 71.4492C154.704 71.4492 154.817 71.4551 154.93 71.4668C155.047 71.4746 155.159 71.4883 155.264 71.5078C155.37 71.5234 155.461 71.543 155.539 71.5664H157.743V72.1934L156.559 72.3398C156.676 72.4922 156.774 72.6758 156.852 72.8906C156.93 73.1055 156.969 73.3438 156.969 73.6055C156.969 74.2461 156.752 74.7559 156.319 75.1348C155.885 75.5098 155.289 75.6973 154.532 75.6973C154.352 75.6973 154.168 75.6816 153.981 75.6504C153.789 75.7559 153.643 75.873 153.541 76.002C153.444 76.1309 153.395 76.2793 153.395 76.4473C153.395 76.5723 153.432 76.6719 153.506 76.7461C153.584 76.8203 153.696 76.875 153.84 76.9102C153.985 76.9414 154.159 76.957 154.362 76.957H155.493C156.192 76.957 156.727 77.1035 157.098 77.3965C157.473 77.6895 157.661 78.1172 157.661 78.6797C157.661 79.3906 157.371 79.9355 156.793 80.3145C156.215 80.6934 155.379 80.8828 154.286 80.8828ZM154.315 80.1211C154.846 80.1211 155.286 80.0664 155.633 79.957C155.985 79.8516 156.246 79.6973 156.418 79.4941C156.594 79.2949 156.682 79.0566 156.682 78.7793C156.682 78.5215 156.623 78.3262 156.506 78.1934C156.389 78.0645 156.217 77.9785 155.991 77.9355C155.764 77.8887 155.487 77.8652 155.159 77.8652H154.045C153.756 77.8652 153.504 77.9102 153.289 78C153.075 78.0898 152.909 78.2227 152.791 78.3984C152.678 78.5742 152.621 78.793 152.621 79.0547C152.621 79.4023 152.768 79.666 153.061 79.8457C153.354 80.0293 153.772 80.1211 154.315 80.1211ZM154.567 74.9883C155.032 74.9883 155.381 74.8711 155.616 74.6367C155.85 74.4023 155.967 74.0605 155.967 73.6113C155.967 73.1309 155.848 72.7715 155.61 72.5332C155.371 72.291 155.02 72.1699 154.555 72.1699C154.11 72.1699 153.766 72.2949 153.524 72.5449C153.286 72.791 153.166 73.1523 153.166 73.6289C153.166 74.0664 153.288 74.4023 153.53 74.6367C153.772 74.8711 154.118 74.9883 154.567 74.9883ZM163.898 71.5781V78H162.925V71.5781H163.898ZM163.423 69.1758C163.584 69.1758 163.72 69.2285 163.834 69.334C163.951 69.4355 164.009 69.5957 164.009 69.8145C164.009 70.0293 163.951 70.1895 163.834 70.2949C163.72 70.4004 163.584 70.4531 163.423 70.4531C163.255 70.4531 163.115 70.4004 163.002 70.2949C162.892 70.1895 162.838 70.0293 162.838 69.8145C162.838 69.5957 162.892 69.4355 163.002 69.334C163.115 69.2285 163.255 69.1758 163.423 69.1758ZM168.933 78.1172C168.355 78.1172 167.845 77.998 167.404 77.7598C166.962 77.5215 166.618 77.1582 166.372 76.6699C166.126 76.1816 166.003 75.5664 166.003 74.8242C166.003 74.0469 166.132 73.4121 166.39 72.9199C166.652 72.4238 167.011 72.0566 167.468 71.8184C167.925 71.5801 168.445 71.4609 169.027 71.4609C169.347 71.4609 169.655 71.4941 169.952 71.5605C170.253 71.623 170.499 71.7031 170.691 71.8008L170.398 72.6152C170.202 72.5371 169.976 72.4668 169.718 72.4043C169.464 72.3418 169.226 72.3105 169.003 72.3105C168.558 72.3105 168.187 72.4062 167.89 72.5977C167.597 72.7891 167.376 73.0703 167.228 73.4414C167.083 73.8125 167.011 74.2695 167.011 74.8125C167.011 75.332 167.081 75.7754 167.222 76.1426C167.366 76.5098 167.579 76.791 167.861 76.9863C168.146 77.1777 168.501 77.2734 168.927 77.2734C169.267 77.2734 169.573 77.2383 169.847 77.168C170.12 77.0938 170.368 77.0078 170.591 76.9102V77.7773C170.376 77.8867 170.136 77.9707 169.87 78.0293C169.609 78.0879 169.296 78.1172 168.933 78.1172ZM178.052 74.7773C178.052 75.3047 177.983 75.7754 177.846 76.1895C177.71 76.6035 177.513 76.9531 177.255 77.2383C176.997 77.5234 176.684 77.7422 176.317 77.8945C175.954 78.043 175.542 78.1172 175.081 78.1172C174.651 78.1172 174.257 78.043 173.897 77.8945C173.542 77.7422 173.233 77.5234 172.971 77.2383C172.714 76.9531 172.513 76.6035 172.368 76.1895C172.227 75.7754 172.157 75.3047 172.157 74.7773C172.157 74.0742 172.276 73.4766 172.514 72.9844C172.753 72.4883 173.093 72.1113 173.534 71.8535C173.979 71.5918 174.509 71.4609 175.122 71.4609C175.708 71.4609 176.22 71.5918 176.657 71.8535C177.098 72.1152 177.44 72.4941 177.682 72.9902C177.929 73.4824 178.052 74.0781 178.052 74.7773ZM173.165 74.7773C173.165 75.293 173.233 75.7402 173.37 76.1191C173.507 76.498 173.718 76.791 174.003 76.998C174.288 77.2051 174.655 77.3086 175.104 77.3086C175.55 77.3086 175.915 77.2051 176.2 76.998C176.489 76.791 176.702 76.498 176.839 76.1191C176.975 75.7402 177.044 75.293 177.044 74.7773C177.044 74.2656 176.975 73.8242 176.839 73.4531C176.702 73.0781 176.491 72.7891 176.206 72.5859C175.921 72.3828 175.552 72.2812 175.098 72.2812C174.43 72.2812 173.94 72.502 173.628 72.9434C173.319 73.3848 173.165 73.9961 173.165 74.7773ZM183.174 71.4609C183.936 71.4609 184.512 71.6484 184.903 72.0234C185.293 72.3945 185.489 72.9922 185.489 73.8164V78H184.528V73.8809C184.528 73.3457 184.405 72.9453 184.159 72.6797C183.916 72.4141 183.543 72.2812 183.039 72.2812C182.329 72.2812 181.829 72.4824 181.539 72.8848C181.25 73.2871 181.106 73.8711 181.106 74.6367V78H180.133V71.5781H180.918L181.065 72.5039H181.118C181.254 72.2773 181.428 72.0879 181.639 71.9355C181.85 71.7793 182.086 71.6621 182.348 71.584C182.61 71.502 182.885 71.4609 183.174 71.4609ZM193.982 78.1172C193.404 78.1172 192.894 77.998 192.453 77.7598C192.011 77.5215 191.668 77.1582 191.421 76.6699C191.175 76.1816 191.052 75.5664 191.052 74.8242C191.052 74.0469 191.181 73.4121 191.439 72.9199C191.701 72.4238 192.06 72.0566 192.517 71.8184C192.974 71.5801 193.494 71.4609 194.076 71.4609C194.396 71.4609 194.705 71.4941 195.002 71.5605C195.302 71.623 195.548 71.7031 195.74 71.8008L195.447 72.6152C195.252 72.5371 195.025 72.4668 194.767 72.4043C194.513 72.3418 194.275 72.3105 194.052 72.3105C193.607 72.3105 193.236 72.4062 192.939 72.5977C192.646 72.7891 192.425 73.0703 192.277 73.4414C192.132 73.8125 192.06 74.2695 192.06 74.8125C192.06 75.332 192.13 75.7754 192.271 76.1426C192.416 76.5098 192.629 76.791 192.91 76.9863C193.195 77.1777 193.55 77.2734 193.976 77.2734C194.316 77.2734 194.623 77.2383 194.896 77.168C195.17 77.0938 195.418 77.0078 195.64 76.9102V77.7773C195.425 77.8867 195.185 77.9707 194.92 78.0293C194.658 78.0879 194.345 78.1172 193.982 78.1172ZM203.101 74.7773C203.101 75.3047 203.032 75.7754 202.896 76.1895C202.759 76.6035 202.562 76.9531 202.304 77.2383C202.046 77.5234 201.734 77.7422 201.366 77.8945C201.003 78.043 200.591 78.1172 200.13 78.1172C199.7 78.1172 199.306 78.043 198.946 77.8945C198.591 77.7422 198.282 77.5234 198.021 77.2383C197.763 76.9531 197.562 76.6035 197.417 76.1895C197.277 75.7754 197.206 75.3047 197.206 74.7773C197.206 74.0742 197.325 73.4766 197.564 72.9844C197.802 72.4883 198.142 72.1113 198.583 71.8535C199.029 71.5918 199.558 71.4609 200.171 71.4609C200.757 71.4609 201.269 71.5918 201.706 71.8535C202.148 72.1152 202.489 72.4941 202.732 72.9902C202.978 73.4824 203.101 74.0781 203.101 74.7773ZM198.214 74.7773C198.214 75.293 198.282 75.7402 198.419 76.1191C198.556 76.498 198.767 76.791 199.052 76.998C199.337 77.2051 199.704 77.3086 200.154 77.3086C200.599 77.3086 200.964 77.2051 201.249 76.998C201.538 76.791 201.751 76.498 201.888 76.1191C202.025 75.7402 202.093 75.293 202.093 74.7773C202.093 74.2656 202.025 73.8242 201.888 73.4531C201.751 73.0781 201.54 72.7891 201.255 72.5859C200.97 72.3828 200.601 72.2812 200.148 72.2812C199.48 72.2812 198.989 72.502 198.677 72.9434C198.368 73.3848 198.214 73.9961 198.214 74.7773ZM206.161 78H205.182V68.8828H206.161V78ZM214.155 74.7773C214.155 75.3047 214.086 75.7754 213.95 76.1895C213.813 76.6035 213.616 76.9531 213.358 77.2383C213.1 77.5234 212.787 77.7422 212.42 77.8945C212.057 78.043 211.645 78.1172 211.184 78.1172C210.754 78.1172 210.36 78.043 210 77.8945C209.645 77.7422 209.336 77.5234 209.075 77.2383C208.817 76.9531 208.616 76.6035 208.471 76.1895C208.33 75.7754 208.26 75.3047 208.26 74.7773C208.26 74.0742 208.379 73.4766 208.618 72.9844C208.856 72.4883 209.196 72.1113 209.637 71.8535C210.082 71.5918 210.612 71.4609 211.225 71.4609C211.811 71.4609 212.323 71.5918 212.76 71.8535C213.202 72.1152 213.543 72.4941 213.786 72.9902C214.032 73.4824 214.155 74.0781 214.155 74.7773ZM209.268 74.7773C209.268 75.293 209.336 75.7402 209.473 76.1191C209.61 76.498 209.821 76.791 210.106 76.998C210.391 77.2051 210.758 77.3086 211.207 77.3086C211.653 77.3086 212.018 77.2051 212.303 76.998C212.592 76.791 212.805 76.498 212.942 76.1191C213.079 75.7402 213.147 75.293 213.147 74.7773C213.147 74.2656 213.079 73.8242 212.942 73.4531C212.805 73.0781 212.594 72.7891 212.309 72.5859C212.024 72.3828 211.655 72.2812 211.202 72.2812C210.534 72.2812 210.043 72.502 209.731 72.9434C209.422 73.3848 209.268 73.9961 209.268 74.7773ZM219.154 71.4609C219.283 71.4609 219.418 71.4688 219.559 71.4844C219.699 71.4961 219.824 71.5137 219.934 71.5371L219.811 72.4395C219.705 72.4121 219.588 72.3906 219.459 72.375C219.33 72.3594 219.209 72.3516 219.096 72.3516C218.838 72.3516 218.594 72.4043 218.363 72.5098C218.137 72.6113 217.938 72.7598 217.766 72.9551C217.594 73.1465 217.459 73.3789 217.361 73.6523C217.264 73.9219 217.215 74.2227 217.215 74.5547V78H216.236V71.5781H217.045L217.15 72.7617H217.191C217.324 72.5234 217.484 72.3066 217.672 72.1113C217.859 71.9121 218.076 71.7539 218.322 71.6367C218.572 71.5195 218.85 71.4609 219.154 71.4609ZM227.466 71.4727C228.232 71.4727 228.8 71.6445 229.171 71.9883C229.542 72.332 229.728 72.8809 229.728 73.6348V78H229.019L228.831 77.0508H228.784C228.605 77.2852 228.417 77.4824 228.222 77.6426C228.027 77.7988 227.8 77.918 227.542 78C227.288 78.0781 226.976 78.1172 226.605 78.1172C226.214 78.1172 225.866 78.0488 225.562 77.9121C225.261 77.7754 225.023 77.5684 224.847 77.291C224.675 77.0137 224.589 76.6621 224.589 76.2363C224.589 75.5957 224.843 75.1035 225.351 74.7598C225.859 74.416 226.632 74.2285 227.671 74.1973L228.779 74.1504V73.7578C228.779 73.2031 228.659 72.8145 228.421 72.5918C228.183 72.3691 227.847 72.2578 227.413 72.2578C227.077 72.2578 226.757 72.3066 226.452 72.4043C226.148 72.502 225.859 72.6172 225.585 72.75L225.286 72.0117C225.575 71.8633 225.907 71.7363 226.282 71.6309C226.657 71.5254 227.052 71.4727 227.466 71.4727ZM228.767 74.8359L227.788 74.877C226.988 74.9082 226.423 75.0391 226.095 75.2695C225.767 75.5 225.603 75.8262 225.603 76.248C225.603 76.6152 225.714 76.8867 225.937 77.0625C226.159 77.2383 226.454 77.3262 226.821 77.3262C227.392 77.3262 227.859 77.168 228.222 76.8516C228.585 76.5352 228.767 76.0605 228.767 75.4277V74.8359ZM236.286 76.2422C236.286 76.6523 236.182 76.998 235.975 77.2793C235.772 77.5566 235.479 77.7656 235.096 77.9062C234.718 78.0469 234.264 78.1172 233.737 78.1172C233.288 78.1172 232.899 78.082 232.571 78.0117C232.243 77.9414 231.956 77.8418 231.71 77.7129V76.8164C231.971 76.9453 232.284 77.0625 232.647 77.168C233.011 77.2734 233.382 77.3262 233.761 77.3262C234.315 77.3262 234.718 77.2363 234.968 77.0566C235.218 76.877 235.343 76.6328 235.343 76.3242C235.343 76.1484 235.292 75.9941 235.19 75.8613C235.093 75.7246 234.927 75.5938 234.692 75.4688C234.458 75.3398 234.134 75.1992 233.72 75.0469C233.309 74.8906 232.954 74.7363 232.653 74.584C232.356 74.4277 232.126 74.2383 231.962 74.0156C231.802 73.793 231.721 73.5039 231.721 73.1484C231.721 72.6055 231.94 72.1895 232.378 71.9004C232.819 71.6074 233.397 71.4609 234.112 71.4609C234.499 71.4609 234.86 71.5 235.196 71.5781C235.536 71.6523 235.852 71.7539 236.145 71.8828L235.817 72.6621C235.552 72.5488 235.268 72.4531 234.968 72.375C234.667 72.2969 234.36 72.2578 234.048 72.2578C233.598 72.2578 233.253 72.332 233.011 72.4805C232.772 72.6289 232.653 72.832 232.653 73.0898C232.653 73.2891 232.708 73.4531 232.817 73.582C232.93 73.7109 233.11 73.832 233.356 73.9453C233.602 74.0586 233.927 74.1914 234.329 74.3438C234.731 74.4922 235.079 74.6465 235.372 74.8066C235.665 74.9629 235.889 75.1543 236.046 75.3809C236.206 75.6035 236.286 75.8906 236.286 76.2422ZM244.785 71.4609C245.586 71.4609 246.225 71.7363 246.701 72.2871C247.178 72.8379 247.416 73.666 247.416 74.7715C247.416 75.502 247.307 76.1152 247.088 76.6113C246.869 77.1074 246.561 77.4824 246.162 77.7363C245.768 77.9902 245.301 78.1172 244.762 78.1172C244.422 78.1172 244.123 78.0723 243.865 77.9824C243.607 77.8926 243.387 77.7715 243.203 77.6191C243.02 77.4668 242.867 77.3008 242.746 77.1211H242.676C242.688 77.2734 242.701 77.457 242.717 77.6719C242.736 77.8867 242.746 78.0742 242.746 78.2344V80.8711H241.768V71.5781H242.57L242.699 72.5273H242.746C242.871 72.332 243.023 72.1543 243.203 71.9941C243.383 71.8301 243.602 71.7012 243.859 71.6074C244.121 71.5098 244.43 71.4609 244.785 71.4609ZM244.615 72.2812C244.17 72.2812 243.811 72.3672 243.537 72.5391C243.268 72.7109 243.07 72.9688 242.945 73.3125C242.82 73.6523 242.754 74.0801 242.746 74.5957V74.7832C242.746 75.3262 242.805 75.7852 242.922 76.1602C243.043 76.5352 243.24 76.8203 243.514 77.0156C243.791 77.2109 244.162 77.3086 244.627 77.3086C245.025 77.3086 245.357 77.2012 245.623 76.9863C245.889 76.7715 246.086 76.4727 246.215 76.0898C246.348 75.7031 246.414 75.2598 246.414 74.7598C246.414 74.002 246.266 73.4004 245.969 72.9551C245.676 72.5059 245.225 72.2812 244.615 72.2812ZM251.988 71.4609C252.535 71.4609 253.004 71.582 253.394 71.8242C253.785 72.0664 254.084 72.4062 254.291 72.8438C254.498 73.2773 254.601 73.7852 254.601 74.3672V74.9707H250.166C250.177 75.7246 250.365 76.2988 250.728 76.6934C251.091 77.0879 251.603 77.2852 252.263 77.2852C252.67 77.2852 253.029 77.248 253.341 77.1738C253.654 77.0996 253.978 76.9902 254.314 76.8457V77.7012C253.99 77.8457 253.668 77.9512 253.347 78.0176C253.031 78.084 252.656 78.1172 252.222 78.1172C251.605 78.1172 251.066 77.9922 250.605 77.7422C250.148 77.4883 249.793 77.1172 249.539 76.6289C249.285 76.1406 249.158 75.543 249.158 74.8359C249.158 74.1445 249.273 73.5469 249.504 73.043C249.738 72.5352 250.066 72.1445 250.488 71.8711C250.914 71.5977 251.414 71.4609 251.988 71.4609ZM251.976 72.2578C251.457 72.2578 251.043 72.4277 250.734 72.7676C250.425 73.1074 250.242 73.582 250.183 74.1914H253.582C253.578 73.8086 253.517 73.4727 253.4 73.1836C253.287 72.8906 253.113 72.6641 252.879 72.5039C252.644 72.3398 252.343 72.2578 251.976 72.2578ZM259.571 71.4609C259.7 71.4609 259.835 71.4688 259.976 71.4844C260.116 71.4961 260.241 71.5137 260.351 71.5371L260.228 72.4395C260.122 72.4121 260.005 72.3906 259.876 72.375C259.747 72.3594 259.626 72.3516 259.513 72.3516C259.255 72.3516 259.011 72.4043 258.78 72.5098C258.554 72.6113 258.355 72.7598 258.183 72.9551C258.011 73.1465 257.876 73.3789 257.779 73.6523C257.681 73.9219 257.632 74.2227 257.632 74.5547V78H256.654V71.5781H257.462L257.568 72.7617H257.609C257.741 72.5234 257.902 72.3066 258.089 72.1113C258.277 71.9121 258.493 71.7539 258.739 71.6367C258.989 71.5195 259.267 71.4609 259.571 71.4609ZM267.555 77.3203C267.715 77.3203 267.879 77.3066 268.047 77.2793C268.215 77.252 268.352 77.2188 268.457 77.1797V77.9355C268.344 77.9863 268.186 78.0293 267.983 78.0645C267.784 78.0996 267.588 78.1172 267.397 78.1172C267.057 78.1172 266.748 78.0586 266.471 77.9414C266.194 77.8203 265.971 77.6172 265.803 77.332C265.639 77.0469 265.557 76.6523 265.557 76.1484V72.3398H264.643V71.8652L265.563 71.4844L265.95 70.0898H266.536V71.5781H268.416V72.3398H266.536V76.1191C266.536 76.5215 266.627 76.8223 266.811 77.0215C266.998 77.2207 267.246 77.3203 267.555 77.3203ZM271.131 68.8828V71.6074C271.131 71.7637 271.127 71.9219 271.119 72.082C271.111 72.2383 271.098 72.3828 271.078 72.5156H271.143C271.275 72.2891 271.443 72.0996 271.646 71.9473C271.854 71.791 272.088 71.6738 272.35 71.5957C272.611 71.5137 272.889 71.4727 273.182 71.4727C273.697 71.4727 274.127 71.5547 274.471 71.7188C274.818 71.8828 275.078 72.1367 275.25 72.4805C275.426 72.8242 275.514 73.2695 275.514 73.8164V78H274.553V73.8809C274.553 73.3457 274.43 72.9453 274.184 72.6797C273.941 72.4141 273.568 72.2812 273.064 72.2812C272.588 72.2812 272.207 72.373 271.922 72.5566C271.641 72.7363 271.438 73.002 271.312 73.3535C271.191 73.7051 271.131 74.1348 271.131 74.6426V78H270.158V68.8828H271.131ZM280.39 71.4609C280.937 71.4609 281.406 71.582 281.796 71.8242C282.187 72.0664 282.486 72.4062 282.693 72.8438C282.9 73.2773 283.004 73.7852 283.004 74.3672V74.9707H278.568C278.58 75.7246 278.767 76.2988 279.13 76.6934C279.494 77.0879 280.005 77.2852 280.666 77.2852C281.072 77.2852 281.431 77.248 281.744 77.1738C282.056 77.0996 282.38 76.9902 282.716 76.8457V77.7012C282.392 77.8457 282.07 77.9512 281.75 78.0176C281.433 78.084 281.058 78.1172 280.625 78.1172C280.007 78.1172 279.468 77.9922 279.007 77.7422C278.55 77.4883 278.195 77.1172 277.941 76.6289C277.687 76.1406 277.56 75.543 277.56 74.8359C277.56 74.1445 277.675 73.5469 277.906 73.043C278.14 72.5352 278.468 72.1445 278.89 71.8711C279.316 71.5977 279.816 71.4609 280.39 71.4609ZM280.379 72.2578C279.859 72.2578 279.445 72.4277 279.136 72.7676C278.828 73.1074 278.644 73.582 278.586 74.1914H281.984C281.98 73.8086 281.92 73.4727 281.802 73.1836C281.689 72.8906 281.515 72.6641 281.281 72.5039C281.046 72.3398 280.746 72.2578 280.379 72.2578ZM291.145 78.1172C290.567 78.1172 290.057 77.998 289.616 77.7598C289.175 77.5215 288.831 77.1582 288.585 76.6699C288.339 76.1816 288.216 75.5664 288.216 74.8242C288.216 74.0469 288.345 73.4121 288.602 72.9199C288.864 72.4238 289.223 72.0566 289.68 71.8184C290.137 71.5801 290.657 71.4609 291.239 71.4609C291.559 71.4609 291.868 71.4941 292.165 71.5605C292.466 71.623 292.712 71.7031 292.903 71.8008L292.61 72.6152C292.415 72.5371 292.188 72.4668 291.93 72.4043C291.677 72.3418 291.438 72.3105 291.216 72.3105C290.77 72.3105 290.399 72.4062 290.102 72.5977C289.809 72.7891 289.589 73.0703 289.44 73.4414C289.296 73.8125 289.223 74.2695 289.223 74.8125C289.223 75.332 289.294 75.7754 289.434 76.1426C289.579 76.5098 289.792 76.791 290.073 76.9863C290.358 77.1777 290.714 77.2734 291.139 77.2734C291.479 77.2734 291.786 77.2383 292.059 77.168C292.333 77.0938 292.581 77.0078 292.804 76.9102V77.7773C292.589 77.8867 292.348 77.9707 292.083 78.0293C291.821 78.0879 291.509 78.1172 291.145 78.1172ZM300.264 74.7773C300.264 75.3047 300.196 75.7754 300.059 76.1895C299.922 76.6035 299.725 76.9531 299.467 77.2383C299.209 77.5234 298.897 77.7422 298.53 77.8945C298.166 78.043 297.754 78.1172 297.293 78.1172C296.864 78.1172 296.469 78.043 296.11 77.8945C295.754 77.7422 295.446 77.5234 295.184 77.2383C294.926 76.9531 294.725 76.6035 294.58 76.1895C294.44 75.7754 294.37 75.3047 294.37 74.7773C294.37 74.0742 294.489 73.4766 294.727 72.9844C294.965 72.4883 295.305 72.1113 295.746 71.8535C296.192 71.5918 296.721 71.4609 297.334 71.4609C297.92 71.4609 298.432 71.5918 298.87 71.8535C299.311 72.1152 299.653 72.4941 299.895 72.9902C300.141 73.4824 300.264 74.0781 300.264 74.7773ZM295.377 74.7773C295.377 75.293 295.446 75.7402 295.582 76.1191C295.719 76.498 295.93 76.791 296.215 76.998C296.5 77.2051 296.868 77.3086 297.317 77.3086C297.762 77.3086 298.127 77.2051 298.413 76.998C298.702 76.791 298.914 76.498 299.051 76.1191C299.188 75.7402 299.256 75.293 299.256 74.7773C299.256 74.2656 299.188 73.8242 299.051 73.4531C298.914 73.0781 298.704 72.7891 298.418 72.5859C298.133 72.3828 297.764 72.2812 297.311 72.2812C296.643 72.2812 296.153 72.502 295.84 72.9434C295.532 73.3848 295.377 73.9961 295.377 74.7773ZM305.387 71.4609C306.148 71.4609 306.725 71.6484 307.115 72.0234C307.506 72.3945 307.701 72.9922 307.701 73.8164V78H306.74V73.8809C306.74 73.3457 306.617 72.9453 306.371 72.6797C306.129 72.4141 305.756 72.2812 305.252 72.2812C304.541 72.2812 304.041 72.4824 303.752 72.8848C303.463 73.2871 303.318 73.8711 303.318 74.6367V78H302.346V71.5781H303.131L303.277 72.5039H303.33C303.467 72.2773 303.641 72.0879 303.852 71.9355C304.062 71.7793 304.299 71.6621 304.561 71.584C304.822 71.502 305.098 71.4609 305.387 71.4609ZM312.179 77.3203C312.339 77.3203 312.504 77.3066 312.671 77.2793C312.839 77.252 312.976 77.2188 313.082 77.1797V77.9355C312.968 77.9863 312.81 78.0293 312.607 78.0645C312.408 78.0996 312.212 78.1172 312.021 78.1172C311.681 78.1172 311.373 78.0586 311.095 77.9414C310.818 77.8203 310.595 77.6172 310.427 77.332C310.263 77.0469 310.181 76.6523 310.181 76.1484V72.3398H309.267V71.8652L310.187 71.4844L310.574 70.0898H311.16V71.5781H313.041V72.3398H311.16V76.1191C311.16 76.5215 311.252 76.8223 311.435 77.0215C311.623 77.2207 311.871 77.3203 312.179 77.3203ZM317.255 71.4609C317.802 71.4609 318.271 71.582 318.661 71.8242C319.052 72.0664 319.351 72.4062 319.558 72.8438C319.765 73.2773 319.868 73.7852 319.868 74.3672V74.9707H315.433C315.445 75.7246 315.632 76.2988 315.995 76.6934C316.359 77.0879 316.87 77.2852 317.53 77.2852C317.937 77.2852 318.296 77.248 318.609 77.1738C318.921 77.0996 319.245 76.9902 319.581 76.8457V77.7012C319.257 77.8457 318.935 77.9512 318.614 78.0176C318.298 78.084 317.923 78.1172 317.489 78.1172C316.872 78.1172 316.333 77.9922 315.872 77.7422C315.415 77.4883 315.06 77.1172 314.806 76.6289C314.552 76.1406 314.425 75.543 314.425 74.8359C314.425 74.1445 314.54 73.5469 314.771 73.043C315.005 72.5352 315.333 72.1445 315.755 71.8711C316.181 71.5977 316.681 71.4609 317.255 71.4609ZM317.243 72.2578C316.724 72.2578 316.31 72.4277 316.001 72.7676C315.693 73.1074 315.509 73.582 315.45 74.1914H318.849C318.845 73.8086 318.784 73.4727 318.667 73.1836C318.554 72.8906 318.38 72.6641 318.146 72.5039C317.911 72.3398 317.611 72.2578 317.243 72.2578ZM323.45 74.7129L321.229 71.5781H322.343L324.036 74.0508L325.723 71.5781H326.825L324.604 74.7129L326.948 78H325.835L324.036 75.3809L322.225 78H321.124L323.45 74.7129ZM330.676 77.3203C330.836 77.3203 331 77.3066 331.168 77.2793C331.336 77.252 331.473 77.2188 331.579 77.1797V77.9355C331.465 77.9863 331.307 78.0293 331.104 78.0645C330.905 78.0996 330.709 78.1172 330.518 78.1172C330.178 78.1172 329.87 78.0586 329.592 77.9414C329.315 77.8203 329.092 77.6172 328.924 77.332C328.76 77.0469 328.678 76.6523 328.678 76.1484V72.3398H327.764V71.8652L328.684 71.4844L329.071 70.0898H329.657V71.5781H331.538V72.3398H329.657V76.1191C329.657 76.5215 329.748 76.8223 329.932 77.0215C330.12 77.2207 330.368 77.3203 330.676 77.3203Z" fill="white"/>
</g>
<rect x="227.5" y="87" width="2" height="27" fill="#0E7490"/>
<circle cx="228.5" cy="116" r="4" fill="#0E7490"/>
</g>
<defs>
<filter id="filter0_dd_328_12088" x="168" y="80" width="464" height="148" filterUnits="userSpaceOnUse" color-interpolation-filters="sRGB">
<feFlood flood-opacity="0" result="BackgroundImageFix"/>
<feColorMatrix in="SourceAlpha" type="matrix" values="0 0 0 0 0 0 0 0 0 0 0 0 0 0 0 0 0 0 127 0" result="hardAlpha"/>
<feOffset/>
<feGaussianBlur stdDeviation="1"/>
<feComposite in2="hardAlpha" operator="out"/>
<feColorMatrix type="matrix" values="0 0 0 0 0.0901961 0 0 0 0 0.0901961 0 0 0 0 0.0901961 0 0 0 0.1 0"/>
<feBlend mode="normal" in2="BackgroundImageFix" result="effect1_dropShadow_328_12088"/>
<feColorMatrix in="SourceAlpha" type="matrix" values="0 0 0 0 0 0 0 0 0 0 0 0 0 0 0 0 0 0 127 0" result="hardAlpha"/>
<feOffset dy="8"/>
<feGaussianBlur stdDeviation="16"/>
<feComposite in2="hardAlpha" operator="out"/>
<feColorMatrix type="matrix" values="0 0 0 0 0.0901961 0 0 0 0 0.0901961 0 0 0 0 0.0901961 0 0 0 0.1 0"/>
<feBlend mode="normal" in2="effect1_dropShadow_328_12088" result="effect2_dropShadow_328_12088"/>
<feBlend mode="normal" in="SourceGraphic" in2="effect2_dropShadow_328_12088" result="shape"/>
</filter>
<filter id="filter1_dd_328_12088" x="168" y="188" width="464" height="148" filterUnits="userSpaceOnUse" color-interpolation-filters="sRGB">
<feFlood flood-opacity="0" result="BackgroundImageFix"/>
<feColorMatrix in="SourceAlpha" type="matrix" values="0 0 0 0 0 0 0 0 0 0 0 0 0 0 0 0 0 0 127 0" result="hardAlpha"/>
<feOffset/>
<feGaussianBlur stdDeviation="1"/>
<feComposite in2="hardAlpha" operator="out"/>
<feColorMatrix type="matrix" values="0 0 0 0 0.0901961 0 0 0 0 0.0901961 0 0 0 0 0.0901961 0 0 0 0.1 0"/>
<feBlend mode="normal" in2="BackgroundImageFix" result="effect1_dropShadow_328_12088"/>
<feColorMatrix in="SourceAlpha" type="matrix" values="0 0 0 0 0 0 0 0 0 0 0 0 0 0 0 0 0 0 127 0" result="hardAlpha"/>
<feOffset dy="8"/>
<feGaussianBlur stdDeviation="16"/>
<feComposite in2="hardAlpha" operator="out"/>
<feColorMatrix type="matrix" values="0 0 0 0 0.0901961 0 0 0 0 0.0901961 0 0 0 0 0.0901961 0 0 0 0.1 0"/>
<feBlend mode="normal" in2="effect1_dropShadow_328_12088" result="effect2_dropShadow_328_12088"/>
<feBlend mode="normal" in="SourceGraphic" in2="effect2_dropShadow_328_12088" result="shape"/>
</filter>
<filter id="filter2_d_328_12088" x="101" y="52" width="255" height="48" filterUnits="userSpaceOnUse" color-interpolation-filters="sRGB">
<feFlood flood-opacity="0" result="BackgroundImageFix"/>
<feColorMatrix in="SourceAlpha" type="matrix" values="0 0 0 0 0 0 0 0 0 0 0 0 0 0 0 0 0 0 127 0" result="hardAlpha"/>
<feOffset dy="3"/>
<feGaussianBlur stdDeviation="4"/>
<feColorMatrix type="matrix" values="0 0 0 0 0.0745098 0 0 0 0 0.0745098 0 0 0 0 0.0784314 0 0 0 0.12 0"/>
<feBlend mode="normal" in2="BackgroundImageFix" result="effect1_dropShadow_328_12088"/>
<feBlend mode="normal" in="SourceGraphic" in2="effect1_dropShadow_328_12088" result="shape"/>
</filter>
<clipPath id="clip0_328_12088">
<rect width="239" height="63" fill="white" transform="translate(109 57)"/>
</clipPath>
</defs>
</svg>
